<?xml version="1.0" encoding="utf-8" standalone="no"?>
<!DOCTYPE svg PUBLIC "-//W3C//DTD SVG 1.1//EN"
  "http://www.w3.org/Graphics/SVG/1.1/DTD/svg11.dtd">
<!-- Created with matplotlib (https://matplotlib.org/) -->
<svg height="668.16pt" version="1.1" viewBox="0 0 1382.4 668.16" width="1382.4pt" xmlns="http://www.w3.org/2000/svg" xmlns:xlink="http://www.w3.org/1999/xlink">
 <defs>
  <style type="text/css">
*{stroke-linecap:butt;stroke-linejoin:round;white-space:pre;}
  </style>
 </defs>
 <g id="figure_1">
  <g id="patch_1">
   <path d="M 0 668.16 
L 1382.4 668.16 
L 1382.4 0 
L 0 0 
z
" style="fill:#ffffff;"/>
  </g>
  <g id="axes_1">
   <g id="patch_2">
    <path d="M 152.064 594.6624 
L 657.896727 594.6624 
L 657.896727 133.632 
L 152.064 133.632 
z
" style="fill:#ffffff;"/>
   </g>
   <g id="PathCollection_1">
    <defs>
     <path d="M 0 -7.071068 
L -7.071068 7.071068 
L 7.071068 7.071068 
z
" id="m61d38616b2" style="stroke:#008000;"/>
    </defs>
    <g clip-path="url(#p41d78637cd)">
     <use style="fill:#008000;stroke:#008000;" x="351.650777" xlink:href="#m61d38616b2" y="407.133813"/>
     <use style="fill:#008000;stroke:#008000;" x="311.0532" xlink:href="#m61d38616b2" y="394.854627"/>
     <use style="fill:#008000;stroke:#008000;" x="224.783348" xlink:href="#m61d38616b2" y="351.665765"/>
    </g>
   </g>
   <g id="PathCollection_2">
    <defs>
     <path d="M -2.705981 -6.532815 
L -6.532815 -2.705981 
L -6.532815 2.705981 
L -2.705981 6.532815 
L 2.705981 6.532815 
L 6.532815 2.705981 
L 6.532815 -2.705981 
L 2.705981 -6.532815 
z
" id="m00c5c37b4d" style="stroke:#ff0000;"/>
    </defs>
    <g clip-path="url(#p41d78637cd)">
     <use style="fill:#ff0000;stroke:#ff0000;" x="630.75912" xlink:href="#m00c5c37b4d" y="498.592578"/>
     <use style="fill:#ff0000;stroke:#ff0000;" x="529.265177" xlink:href="#m00c5c37b4d" y="494.358376"/>
     <use style="fill:#ff0000;stroke:#ff0000;" x="311.0532" xlink:href="#m00c5c37b4d" y="393.160946"/>
    </g>
   </g>
   <g id="PathCollection_3">
    <defs>
     <path d="M -3.535534 7.071068 
L 0 3.535534 
L 3.535534 7.071068 
L 7.071068 3.535534 
L 3.535534 0 
L 7.071068 -3.535534 
L 3.535534 -7.071068 
L 0 -3.535534 
L -3.535534 -7.071068 
L -7.071068 -3.535534 
L -3.535534 0 
L -7.071068 3.535534 
z
" id="mbe194b9dd3" style="stroke:#00bfbf;"/>
    </defs>
    <g clip-path="url(#p41d78637cd)">
     <use style="fill:#00bfbf;stroke:#00bfbf;" x="544.489269" xlink:href="#mbe194b9dd3" y="570.574014"/>
     <use style="fill:#00bfbf;stroke:#00bfbf;" x="473.443509" xlink:href="#mbe194b9dd3" y="548.132743"/>
     <use style="fill:#00bfbf;stroke:#00bfbf;" x="285.679714" xlink:href="#mbe194b9dd3" y="483.772871"/>
    </g>
   </g>
   <g id="PathCollection_4">
    <defs>
     <path d="M 0 -7.071068 
L -1.587554 -2.18508 
L -6.724985 -2.18508 
L -2.568716 0.834626 
L -4.156269 5.720614 
L -0 2.700907 
L 4.156269 5.720614 
L 2.568716 0.834626 
L 6.724985 -2.18508 
L 1.587554 -2.18508 
z
" id="md3d5f86757" style="stroke:#0000ff;"/>
    </defs>
    <g clip-path="url(#p41d78637cd)">
     <use style="fill:#0000ff;stroke:#0000ff;" x="524.19048" xlink:href="#md3d5f86757" y="436.773228"/>
     <use style="fill:#0000ff;stroke:#0000ff;" x="453.14472" xlink:href="#md3d5f86757" y="424.070621"/>
     <use style="fill:#0000ff;stroke:#0000ff;" x="275.53032" xlink:href="#md3d5f86757" y="344.467622"/>
    </g>
   </g>
   <g id="PathCollection_5">
    <defs>
     <path d="M 0 10 
L 10 0 
L 0 -10 
L -10 0 
z
" id="mb19dab37b3" style="stroke:#bf00bf;"/>
    </defs>
    <g clip-path="url(#p41d78637cd)">
     <use style="fill:#bf00bf;stroke:#bf00bf;" x="544.489269" xlink:href="#mb19dab37b3" y="265.711463"/>
     <use style="fill:#bf00bf;stroke:#bf00bf;" x="463.294114" xlink:href="#mb19dab37b3" y="255.972798"/>
     <use style="fill:#bf00bf;stroke:#bf00bf;" x="280.605017" xlink:href="#mb19dab37b3" y="161.550091"/>
    </g>
   </g>
   <g id="PathCollection_6">
    <defs>
     <path d="M -0 7.071068 
L 7.071068 -7.071068 
L -7.071068 -7.071068 
z
" id="mffb1b4ce36" style="stroke:#00ffff;"/>
    </defs>
    <g clip-path="url(#p41d78637cd)">
     <use style="fill:#00ffff;stroke:#00ffff;" x="295.829108" xlink:href="#mffb1b4ce36" y="382.998861"/>
     <use style="fill:#00ffff;stroke:#00ffff;" x="280.605017" xlink:href="#mffb1b4ce36" y="373.260196"/>
     <use style="fill:#00ffff;stroke:#00ffff;" x="189.260468" xlink:href="#mffb1b4ce36" y="315.251627"/>
    </g>
   </g>
   <g id="PathCollection_7">
    <defs>
     <path d="M -7.071068 7.071068 
L 7.071068 7.071068 
L 7.071068 -7.071068 
L -7.071068 -7.071068 
z
" id="m2342108aaa" style="stroke:#800000;"/>
    </defs>
    <g clip-path="url(#p41d78637cd)">
     <use style="fill:#800000;stroke:#800000;" x="305.978502" xlink:href="#m2342108aaa" y="370.296255"/>
     <use style="fill:#800000;stroke:#800000;" x="300.903805" xlink:href="#m2342108aaa" y="345.737883"/>
     <use style="fill:#800000;stroke:#800000;" x="199.409862" xlink:href="#m2342108aaa" y="308.900324"/>
    </g>
   </g>
   <g id="PathCollection_8">
    <defs>
     <path d="M 7.071068 0 
L -7.071068 -7.071068 
L -7.071068 7.071068 
z
" id="mbd3b6cf5e3" style="stroke:#000080;"/>
    </defs>
    <g clip-path="url(#p41d78637cd)">
     <use style="fill:#000080;stroke:#000080;" x="590.161543" xlink:href="#mbd3b6cf5e3" y="431.268765"/>
     <use style="fill:#000080;stroke:#000080;" x="529.265177" xlink:href="#mbd3b6cf5e3" y="408.404074"/>
     <use style="fill:#000080;stroke:#000080;" x="305.978502" xlink:href="#mbd3b6cf5e3" y="355.476547"/>
    </g>
   </g>
   <g id="matplotlib.axis_1">
    <g id="xtick_1">
     <g id="line2d_1">
      <path clip-path="url(#p41d78637cd)" d="M 234.932742 594.6624 
L 234.932742 133.632 
" style="fill:none;stroke:#bfbfbf;stroke-linecap:square;stroke-width:0.75;"/>
     </g>
     <g id="line2d_2">
      <defs>
       <path d="M 0 0 
L 0 3.5 
" id="m6e46042239" style="stroke:#000000;stroke-width:0.8;"/>
      </defs>
      <g>
       <use style="stroke:#000000;stroke-width:0.8;" x="234.932742" xlink:href="#m6e46042239" y="594.6624"/>
      </g>
     </g>
     <g id="text_1">
      <!-- 6 -->
      <defs>
       <path d="M 33.015625 40.375 
Q 26.375 40.375 22.484375 35.828125 
Q 18.609375 31.296875 18.609375 23.390625 
Q 18.609375 15.53125 22.484375 10.953125 
Q 26.375 6.390625 33.015625 6.390625 
Q 39.65625 6.390625 43.53125 10.953125 
Q 47.40625 15.53125 47.40625 23.390625 
Q 47.40625 31.296875 43.53125 35.828125 
Q 39.65625 40.375 33.015625 40.375 
z
M 52.59375 71.296875 
L 52.59375 62.3125 
Q 48.875 64.0625 45.09375 64.984375 
Q 41.3125 65.921875 37.59375 65.921875 
Q 27.828125 65.921875 22.671875 59.328125 
Q 17.53125 52.734375 16.796875 39.40625 
Q 19.671875 43.65625 24.015625 45.921875 
Q 28.375 48.1875 33.59375 48.1875 
Q 44.578125 48.1875 50.953125 41.515625 
Q 57.328125 34.859375 57.328125 23.390625 
Q 57.328125 12.15625 50.6875 5.359375 
Q 44.046875 -1.421875 33.015625 -1.421875 
Q 20.359375 -1.421875 13.671875 8.265625 
Q 6.984375 17.96875 6.984375 36.375 
Q 6.984375 53.65625 15.1875 63.9375 
Q 23.390625 74.21875 37.203125 74.21875 
Q 40.921875 74.21875 44.703125 73.484375 
Q 48.484375 72.75 52.59375 71.296875 
z
" id="DejaVuSans-54"/>
      </defs>
      <g transform="translate(231.751492 609.260837)scale(0.1 -0.1)">
       <use xlink:href="#DejaVuSans-54"/>
      </g>
     </g>
    </g>
    <g id="xtick_2">
     <g id="line2d_3">
      <path clip-path="url(#p41d78637cd)" d="M 336.426685 594.6624 
L 336.426685 133.632 
" style="fill:none;stroke:#bfbfbf;stroke-linecap:square;stroke-width:0.75;"/>
     </g>
     <g id="line2d_4">
      <g>
       <use style="stroke:#000000;stroke-width:0.8;" x="336.426685" xlink:href="#m6e46042239" y="594.6624"/>
      </g>
     </g>
     <g id="text_2">
      <!-- 8 -->
      <defs>
       <path d="M 31.78125 34.625 
Q 24.75 34.625 20.71875 30.859375 
Q 16.703125 27.09375 16.703125 20.515625 
Q 16.703125 13.921875 20.71875 10.15625 
Q 24.75 6.390625 31.78125 6.390625 
Q 38.8125 6.390625 42.859375 10.171875 
Q 46.921875 13.96875 46.921875 20.515625 
Q 46.921875 27.09375 42.890625 30.859375 
Q 38.875 34.625 31.78125 34.625 
z
M 21.921875 38.8125 
Q 15.578125 40.375 12.03125 44.71875 
Q 8.5 49.078125 8.5 55.328125 
Q 8.5 64.0625 14.71875 69.140625 
Q 20.953125 74.21875 31.78125 74.21875 
Q 42.671875 74.21875 48.875 69.140625 
Q 55.078125 64.0625 55.078125 55.328125 
Q 55.078125 49.078125 51.53125 44.71875 
Q 48 40.375 41.703125 38.8125 
Q 48.828125 37.15625 52.796875 32.3125 
Q 56.78125 27.484375 56.78125 20.515625 
Q 56.78125 9.90625 50.3125 4.234375 
Q 43.84375 -1.421875 31.78125 -1.421875 
Q 19.734375 -1.421875 13.25 4.234375 
Q 6.78125 9.90625 6.78125 20.515625 
Q 6.78125 27.484375 10.78125 32.3125 
Q 14.796875 37.15625 21.921875 38.8125 
z
M 18.3125 54.390625 
Q 18.3125 48.734375 21.84375 45.5625 
Q 25.390625 42.390625 31.78125 42.390625 
Q 38.140625 42.390625 41.71875 45.5625 
Q 45.3125 48.734375 45.3125 54.390625 
Q 45.3125 60.0625 41.71875 63.234375 
Q 38.140625 66.40625 31.78125 66.40625 
Q 25.390625 66.40625 21.84375 63.234375 
Q 18.3125 60.0625 18.3125 54.390625 
z
" id="DejaVuSans-56"/>
      </defs>
      <g transform="translate(333.245435 609.260837)scale(0.1 -0.1)">
       <use xlink:href="#DejaVuSans-56"/>
      </g>
     </g>
    </g>
    <g id="xtick_3">
     <g id="line2d_5">
      <path clip-path="url(#p41d78637cd)" d="M 437.920629 594.6624 
L 437.920629 133.632 
" style="fill:none;stroke:#bfbfbf;stroke-linecap:square;stroke-width:0.75;"/>
     </g>
     <g id="line2d_6">
      <g>
       <use style="stroke:#000000;stroke-width:0.8;" x="437.920629" xlink:href="#m6e46042239" y="594.6624"/>
      </g>
     </g>
     <g id="text_3">
      <!-- 10 -->
      <defs>
       <path d="M 12.40625 8.296875 
L 28.515625 8.296875 
L 28.515625 63.921875 
L 10.984375 60.40625 
L 10.984375 69.390625 
L 28.421875 72.90625 
L 38.28125 72.90625 
L 38.28125 8.296875 
L 54.390625 8.296875 
L 54.390625 0 
L 12.40625 0 
z
" id="DejaVuSans-49"/>
       <path d="M 31.78125 66.40625 
Q 24.171875 66.40625 20.328125 58.90625 
Q 16.5 51.421875 16.5 36.375 
Q 16.5 21.390625 20.328125 13.890625 
Q 24.171875 6.390625 31.78125 6.390625 
Q 39.453125 6.390625 43.28125 13.890625 
Q 47.125 21.390625 47.125 36.375 
Q 47.125 51.421875 43.28125 58.90625 
Q 39.453125 66.40625 31.78125 66.40625 
z
M 31.78125 74.21875 
Q 44.046875 74.21875 50.515625 64.515625 
Q 56.984375 54.828125 56.984375 36.375 
Q 56.984375 17.96875 50.515625 8.265625 
Q 44.046875 -1.421875 31.78125 -1.421875 
Q 19.53125 -1.421875 13.0625 8.265625 
Q 6.59375 17.96875 6.59375 36.375 
Q 6.59375 54.828125 13.0625 64.515625 
Q 19.53125 74.21875 31.78125 74.21875 
z
" id="DejaVuSans-48"/>
      </defs>
      <g transform="translate(431.558129 609.260837)scale(0.1 -0.1)">
       <use xlink:href="#DejaVuSans-49"/>
       <use x="63.623047" xlink:href="#DejaVuSans-48"/>
      </g>
     </g>
    </g>
    <g id="xtick_4">
     <g id="line2d_7">
      <path clip-path="url(#p41d78637cd)" d="M 539.414572 594.6624 
L 539.414572 133.632 
" style="fill:none;stroke:#bfbfbf;stroke-linecap:square;stroke-width:0.75;"/>
     </g>
     <g id="line2d_8">
      <g>
       <use style="stroke:#000000;stroke-width:0.8;" x="539.414572" xlink:href="#m6e46042239" y="594.6624"/>
      </g>
     </g>
     <g id="text_4">
      <!-- 12 -->
      <defs>
       <path d="M 19.1875 8.296875 
L 53.609375 8.296875 
L 53.609375 0 
L 7.328125 0 
L 7.328125 8.296875 
Q 12.9375 14.109375 22.625 23.890625 
Q 32.328125 33.6875 34.8125 36.53125 
Q 39.546875 41.84375 41.421875 45.53125 
Q 43.3125 49.21875 43.3125 52.78125 
Q 43.3125 58.59375 39.234375 62.25 
Q 35.15625 65.921875 28.609375 65.921875 
Q 23.96875 65.921875 18.8125 64.3125 
Q 13.671875 62.703125 7.8125 59.421875 
L 7.8125 69.390625 
Q 13.765625 71.78125 18.9375 73 
Q 24.125 74.21875 28.421875 74.21875 
Q 39.75 74.21875 46.484375 68.546875 
Q 53.21875 62.890625 53.21875 53.421875 
Q 53.21875 48.921875 51.53125 44.890625 
Q 49.859375 40.875 45.40625 35.40625 
Q 44.1875 33.984375 37.640625 27.21875 
Q 31.109375 20.453125 19.1875 8.296875 
z
" id="DejaVuSans-50"/>
      </defs>
      <g transform="translate(533.052072 609.260837)scale(0.1 -0.1)">
       <use xlink:href="#DejaVuSans-49"/>
       <use x="63.623047" xlink:href="#DejaVuSans-50"/>
      </g>
     </g>
    </g>
    <g id="xtick_5">
     <g id="line2d_9">
      <path clip-path="url(#p41d78637cd)" d="M 640.908515 594.6624 
L 640.908515 133.632 
" style="fill:none;stroke:#bfbfbf;stroke-linecap:square;stroke-width:0.75;"/>
     </g>
     <g id="line2d_10">
      <g>
       <use style="stroke:#000000;stroke-width:0.8;" x="640.908515" xlink:href="#m6e46042239" y="594.6624"/>
      </g>
     </g>
     <g id="text_5">
      <!-- 14 -->
      <defs>
       <path d="M 37.796875 64.3125 
L 12.890625 25.390625 
L 37.796875 25.390625 
z
M 35.203125 72.90625 
L 47.609375 72.90625 
L 47.609375 25.390625 
L 58.015625 25.390625 
L 58.015625 17.1875 
L 47.609375 17.1875 
L 47.609375 0 
L 37.796875 0 
L 37.796875 17.1875 
L 4.890625 17.1875 
L 4.890625 26.703125 
z
" id="DejaVuSans-52"/>
      </defs>
      <g transform="translate(634.546015 609.260837)scale(0.1 -0.1)">
       <use xlink:href="#DejaVuSans-49"/>
       <use x="63.623047" xlink:href="#DejaVuSans-52"/>
      </g>
     </g>
    </g>
    <g id="text_6">
     <!-- FPS -->
     <defs>
      <path d="M 9.8125 72.90625 
L 51.703125 72.90625 
L 51.703125 64.59375 
L 19.671875 64.59375 
L 19.671875 43.109375 
L 48.578125 43.109375 
L 48.578125 34.8125 
L 19.671875 34.8125 
L 19.671875 0 
L 9.8125 0 
z
" id="DejaVuSans-70"/>
      <path d="M 19.671875 64.796875 
L 19.671875 37.40625 
L 32.078125 37.40625 
Q 38.96875 37.40625 42.71875 40.96875 
Q 46.484375 44.53125 46.484375 51.125 
Q 46.484375 57.671875 42.71875 61.234375 
Q 38.96875 64.796875 32.078125 64.796875 
z
M 9.8125 72.90625 
L 32.078125 72.90625 
Q 44.34375 72.90625 50.609375 67.359375 
Q 56.890625 61.8125 56.890625 51.125 
Q 56.890625 40.328125 50.609375 34.8125 
Q 44.34375 29.296875 32.078125 29.296875 
L 19.671875 29.296875 
L 19.671875 0 
L 9.8125 0 
z
" id="DejaVuSans-80"/>
      <path d="M 53.515625 70.515625 
L 53.515625 60.890625 
Q 47.90625 63.578125 42.921875 64.890625 
Q 37.9375 66.21875 33.296875 66.21875 
Q 25.25 66.21875 20.875 63.09375 
Q 16.5 59.96875 16.5 54.203125 
Q 16.5 49.359375 19.40625 46.890625 
Q 22.3125 44.4375 30.421875 42.921875 
L 36.375 41.703125 
Q 47.40625 39.59375 52.65625 34.296875 
Q 57.90625 29 57.90625 20.125 
Q 57.90625 9.515625 50.796875 4.046875 
Q 43.703125 -1.421875 29.984375 -1.421875 
Q 24.8125 -1.421875 18.96875 -0.25 
Q 13.140625 0.921875 6.890625 3.21875 
L 6.890625 13.375 
Q 12.890625 10.015625 18.65625 8.296875 
Q 24.421875 6.59375 29.984375 6.59375 
Q 38.421875 6.59375 43.015625 9.90625 
Q 47.609375 13.234375 47.609375 19.390625 
Q 47.609375 24.75 44.3125 27.78125 
Q 41.015625 30.8125 33.5 32.328125 
L 27.484375 33.5 
Q 16.453125 35.6875 11.515625 40.375 
Q 6.59375 45.0625 6.59375 53.421875 
Q 6.59375 63.09375 13.40625 68.65625 
Q 20.21875 74.21875 32.171875 74.21875 
Q 37.3125 74.21875 42.625 73.28125 
Q 47.953125 72.359375 53.515625 70.515625 
z
" id="DejaVuSans-83"/>
     </defs>
     <g transform="translate(379.598801 636.61615)scale(0.28 -0.28)">
      <use xlink:href="#DejaVuSans-70"/>
      <use x="57.519531" xlink:href="#DejaVuSans-80"/>
      <use x="117.822266" xlink:href="#DejaVuSans-83"/>
     </g>
    </g>
   </g>
   <g id="matplotlib.axis_2">
    <g id="ytick_1">
     <g id="line2d_11">
      <path clip-path="url(#p41d78637cd)" d="M 152.064 554.060626 
L 657.896727 554.060626 
" style="fill:none;stroke:#bfbfbf;stroke-linecap:square;stroke-width:0.75;"/>
     </g>
     <g id="line2d_12">
      <defs>
       <path d="M 0 0 
L -3.5 0 
" id="m26d3f90648" style="stroke:#000000;stroke-width:0.8;"/>
      </defs>
      <g>
       <use style="stroke:#000000;stroke-width:0.8;" x="152.064" xlink:href="#m26d3f90648" y="554.060626"/>
      </g>
     </g>
     <g id="text_7">
      <!-- 46 -->
      <g transform="translate(132.339 557.859845)scale(0.1 -0.1)">
       <use xlink:href="#DejaVuSans-52"/>
       <use x="63.623047" xlink:href="#DejaVuSans-54"/>
      </g>
     </g>
    </g>
    <g id="ytick_2">
     <g id="line2d_13">
      <path clip-path="url(#p41d78637cd)" d="M 152.064 469.376584 
L 657.896727 469.376584 
" style="fill:none;stroke:#bfbfbf;stroke-linecap:square;stroke-width:0.75;"/>
     </g>
     <g id="line2d_14">
      <g>
       <use style="stroke:#000000;stroke-width:0.8;" x="152.064" xlink:href="#m26d3f90648" y="469.376584"/>
      </g>
     </g>
     <g id="text_8">
      <!-- 48 -->
      <g transform="translate(132.339 473.175803)scale(0.1 -0.1)">
       <use xlink:href="#DejaVuSans-52"/>
       <use x="63.623047" xlink:href="#DejaVuSans-56"/>
      </g>
     </g>
    </g>
    <g id="ytick_3">
     <g id="line2d_15">
      <path clip-path="url(#p41d78637cd)" d="M 152.064 384.692542 
L 657.896727 384.692542 
" style="fill:none;stroke:#bfbfbf;stroke-linecap:square;stroke-width:0.75;"/>
     </g>
     <g id="line2d_16">
      <g>
       <use style="stroke:#000000;stroke-width:0.8;" x="152.064" xlink:href="#m26d3f90648" y="384.692542"/>
      </g>
     </g>
     <g id="text_9">
      <!-- 50 -->
      <defs>
       <path d="M 10.796875 72.90625 
L 49.515625 72.90625 
L 49.515625 64.59375 
L 19.828125 64.59375 
L 19.828125 46.734375 
Q 21.96875 47.46875 24.109375 47.828125 
Q 26.265625 48.1875 28.421875 48.1875 
Q 40.625 48.1875 47.75 41.5 
Q 54.890625 34.8125 54.890625 23.390625 
Q 54.890625 11.625 47.5625 5.09375 
Q 40.234375 -1.421875 26.90625 -1.421875 
Q 22.3125 -1.421875 17.546875 -0.640625 
Q 12.796875 0.140625 7.71875 1.703125 
L 7.71875 11.625 
Q 12.109375 9.234375 16.796875 8.0625 
Q 21.484375 6.890625 26.703125 6.890625 
Q 35.15625 6.890625 40.078125 11.328125 
Q 45.015625 15.765625 45.015625 23.390625 
Q 45.015625 31 40.078125 35.4375 
Q 35.15625 39.890625 26.703125 39.890625 
Q 22.75 39.890625 18.8125 39.015625 
Q 14.890625 38.140625 10.796875 36.28125 
z
" id="DejaVuSans-53"/>
      </defs>
      <g transform="translate(132.339 388.491761)scale(0.1 -0.1)">
       <use xlink:href="#DejaVuSans-53"/>
       <use x="63.623047" xlink:href="#DejaVuSans-48"/>
      </g>
     </g>
    </g>
    <g id="ytick_4">
     <g id="line2d_17">
      <path clip-path="url(#p41d78637cd)" d="M 152.064 300.0085 
L 657.896727 300.0085 
" style="fill:none;stroke:#bfbfbf;stroke-linecap:square;stroke-width:0.75;"/>
     </g>
     <g id="line2d_18">
      <g>
       <use style="stroke:#000000;stroke-width:0.8;" x="152.064" xlink:href="#m26d3f90648" y="300.0085"/>
      </g>
     </g>
     <g id="text_10">
      <!-- 52 -->
      <g transform="translate(132.339 303.807719)scale(0.1 -0.1)">
       <use xlink:href="#DejaVuSans-53"/>
       <use x="63.623047" xlink:href="#DejaVuSans-50"/>
      </g>
     </g>
    </g>
    <g id="ytick_5">
     <g id="line2d_19">
      <path clip-path="url(#p41d78637cd)" d="M 152.064 215.324458 
L 657.896727 215.324458 
" style="fill:none;stroke:#bfbfbf;stroke-linecap:square;stroke-width:0.75;"/>
     </g>
     <g id="line2d_20">
      <g>
       <use style="stroke:#000000;stroke-width:0.8;" x="152.064" xlink:href="#m26d3f90648" y="215.324458"/>
      </g>
     </g>
     <g id="text_11">
      <!-- 54 -->
      <g transform="translate(132.339 219.123677)scale(0.1 -0.1)">
       <use xlink:href="#DejaVuSans-53"/>
       <use x="63.623047" xlink:href="#DejaVuSans-52"/>
      </g>
     </g>
    </g>
    <g id="text_12">
     <!-- OBB mAP (%) -->
     <defs>
      <path d="M 39.40625 66.21875 
Q 28.65625 66.21875 22.328125 58.203125 
Q 16.015625 50.203125 16.015625 36.375 
Q 16.015625 22.609375 22.328125 14.59375 
Q 28.65625 6.59375 39.40625 6.59375 
Q 50.140625 6.59375 56.421875 14.59375 
Q 62.703125 22.609375 62.703125 36.375 
Q 62.703125 50.203125 56.421875 58.203125 
Q 50.140625 66.21875 39.40625 66.21875 
z
M 39.40625 74.21875 
Q 54.734375 74.21875 63.90625 63.9375 
Q 73.09375 53.65625 73.09375 36.375 
Q 73.09375 19.140625 63.90625 8.859375 
Q 54.734375 -1.421875 39.40625 -1.421875 
Q 24.03125 -1.421875 14.8125 8.828125 
Q 5.609375 19.09375 5.609375 36.375 
Q 5.609375 53.65625 14.8125 63.9375 
Q 24.03125 74.21875 39.40625 74.21875 
z
" id="DejaVuSans-79"/>
      <path d="M 19.671875 34.8125 
L 19.671875 8.109375 
L 35.5 8.109375 
Q 43.453125 8.109375 47.28125 11.40625 
Q 51.125 14.703125 51.125 21.484375 
Q 51.125 28.328125 47.28125 31.5625 
Q 43.453125 34.8125 35.5 34.8125 
z
M 19.671875 64.796875 
L 19.671875 42.828125 
L 34.28125 42.828125 
Q 41.5 42.828125 45.03125 45.53125 
Q 48.578125 48.25 48.578125 53.8125 
Q 48.578125 59.328125 45.03125 62.0625 
Q 41.5 64.796875 34.28125 64.796875 
z
M 9.8125 72.90625 
L 35.015625 72.90625 
Q 46.296875 72.90625 52.390625 68.21875 
Q 58.5 63.53125 58.5 54.890625 
Q 58.5 48.1875 55.375 44.234375 
Q 52.25 40.28125 46.1875 39.3125 
Q 53.46875 37.75 57.5 32.78125 
Q 61.53125 27.828125 61.53125 20.40625 
Q 61.53125 10.640625 54.890625 5.3125 
Q 48.25 0 35.984375 0 
L 9.8125 0 
z
" id="DejaVuSans-66"/>
      <path id="DejaVuSans-32"/>
      <path d="M 52 44.1875 
Q 55.375 50.25 60.0625 53.125 
Q 64.75 56 71.09375 56 
Q 79.640625 56 84.28125 50.015625 
Q 88.921875 44.046875 88.921875 33.015625 
L 88.921875 0 
L 79.890625 0 
L 79.890625 32.71875 
Q 79.890625 40.578125 77.09375 44.375 
Q 74.3125 48.1875 68.609375 48.1875 
Q 61.625 48.1875 57.5625 43.546875 
Q 53.515625 38.921875 53.515625 30.90625 
L 53.515625 0 
L 44.484375 0 
L 44.484375 32.71875 
Q 44.484375 40.625 41.703125 44.40625 
Q 38.921875 48.1875 33.109375 48.1875 
Q 26.21875 48.1875 22.15625 43.53125 
Q 18.109375 38.875 18.109375 30.90625 
L 18.109375 0 
L 9.078125 0 
L 9.078125 54.6875 
L 18.109375 54.6875 
L 18.109375 46.1875 
Q 21.1875 51.21875 25.484375 53.609375 
Q 29.78125 56 35.6875 56 
Q 41.65625 56 45.828125 52.96875 
Q 50 49.953125 52 44.1875 
z
" id="DejaVuSans-109"/>
      <path d="M 34.1875 63.1875 
L 20.796875 26.90625 
L 47.609375 26.90625 
z
M 28.609375 72.90625 
L 39.796875 72.90625 
L 67.578125 0 
L 57.328125 0 
L 50.6875 18.703125 
L 17.828125 18.703125 
L 11.1875 0 
L 0.78125 0 
z
" id="DejaVuSans-65"/>
      <path d="M 31 75.875 
Q 24.46875 64.65625 21.28125 53.65625 
Q 18.109375 42.671875 18.109375 31.390625 
Q 18.109375 20.125 21.3125 9.0625 
Q 24.515625 -2 31 -13.1875 
L 23.1875 -13.1875 
Q 15.875 -1.703125 12.234375 9.375 
Q 8.59375 20.453125 8.59375 31.390625 
Q 8.59375 42.28125 12.203125 53.3125 
Q 15.828125 64.359375 23.1875 75.875 
z
" id="DejaVuSans-40"/>
      <path d="M 72.703125 32.078125 
Q 68.453125 32.078125 66.03125 28.46875 
Q 63.625 24.859375 63.625 18.40625 
Q 63.625 12.0625 66.03125 8.421875 
Q 68.453125 4.78125 72.703125 4.78125 
Q 76.859375 4.78125 79.265625 8.421875 
Q 81.6875 12.0625 81.6875 18.40625 
Q 81.6875 24.8125 79.265625 28.4375 
Q 76.859375 32.078125 72.703125 32.078125 
z
M 72.703125 38.28125 
Q 80.421875 38.28125 84.953125 32.90625 
Q 89.5 27.546875 89.5 18.40625 
Q 89.5 9.28125 84.9375 3.921875 
Q 80.375 -1.421875 72.703125 -1.421875 
Q 64.890625 -1.421875 60.34375 3.921875 
Q 55.8125 9.28125 55.8125 18.40625 
Q 55.8125 27.59375 60.375 32.9375 
Q 64.9375 38.28125 72.703125 38.28125 
z
M 22.3125 68.015625 
Q 18.109375 68.015625 15.6875 64.375 
Q 13.28125 60.75 13.28125 54.390625 
Q 13.28125 47.953125 15.671875 44.328125 
Q 18.0625 40.71875 22.3125 40.71875 
Q 26.5625 40.71875 28.96875 44.328125 
Q 31.390625 47.953125 31.390625 54.390625 
Q 31.390625 60.6875 28.953125 64.34375 
Q 26.515625 68.015625 22.3125 68.015625 
z
M 66.40625 74.21875 
L 74.21875 74.21875 
L 28.609375 -1.421875 
L 20.796875 -1.421875 
z
M 22.3125 74.21875 
Q 30.03125 74.21875 34.609375 68.875 
Q 39.203125 63.53125 39.203125 54.390625 
Q 39.203125 45.171875 34.640625 39.84375 
Q 30.078125 34.515625 22.3125 34.515625 
Q 14.546875 34.515625 10.03125 39.859375 
Q 5.515625 45.21875 5.515625 54.390625 
Q 5.515625 63.484375 10.046875 68.84375 
Q 14.59375 74.21875 22.3125 74.21875 
z
" id="DejaVuSans-37"/>
      <path d="M 8.015625 75.875 
L 15.828125 75.875 
Q 23.140625 64.359375 26.78125 53.3125 
Q 30.421875 42.28125 30.421875 31.390625 
Q 30.421875 20.453125 26.78125 9.375 
Q 23.140625 -1.703125 15.828125 -13.1875 
L 8.015625 -13.1875 
Q 14.5 -2 17.703125 9.0625 
Q 20.90625 20.125 20.90625 31.390625 
Q 20.90625 42.671875 17.703125 53.65625 
Q 14.5 64.65625 8.015625 75.875 
z
" id="DejaVuSans-41"/>
     </defs>
     <g transform="translate(122.515875 459.159075)rotate(-90)scale(0.28 -0.28)">
      <use xlink:href="#DejaVuSans-79"/>
      <use x="78.710938" xlink:href="#DejaVuSans-66"/>
      <use x="147.314453" xlink:href="#DejaVuSans-66"/>
      <use x="215.917969" xlink:href="#DejaVuSans-32"/>
      <use x="247.705078" xlink:href="#DejaVuSans-109"/>
      <use x="345.117188" xlink:href="#DejaVuSans-65"/>
      <use x="413.525391" xlink:href="#DejaVuSans-80"/>
      <use x="473.828125" xlink:href="#DejaVuSans-32"/>
      <use x="505.615234" xlink:href="#DejaVuSans-40"/>
      <use x="544.628906" xlink:href="#DejaVuSans-37"/>
      <use x="639.648438" xlink:href="#DejaVuSans-41"/>
     </g>
    </g>
   </g>
   <g id="patch_3">
    <path d="M 152.064 594.6624 
L 152.064 133.632 
" style="fill:none;stroke:#000000;stroke-linecap:square;stroke-linejoin:miter;stroke-width:0.8;"/>
   </g>
   <g id="patch_4">
    <path d="M 657.896727 594.6624 
L 657.896727 133.632 
" style="fill:none;stroke:#000000;stroke-linecap:square;stroke-linejoin:miter;stroke-width:0.8;"/>
   </g>
   <g id="patch_5">
    <path d="M 152.064 594.6624 
L 657.896727 594.6624 
" style="fill:none;stroke:#000000;stroke-linecap:square;stroke-linejoin:miter;stroke-width:0.8;"/>
   </g>
   <g id="patch_6">
    <path d="M 152.064 133.632 
L 657.896727 133.632 
" style="fill:none;stroke:#000000;stroke-linecap:square;stroke-linejoin:miter;stroke-width:0.8;"/>
   </g>
  </g>
  <g id="axes_2">
   <g id="patch_7">
    <path d="M 759.063273 594.6624 
L 1264.896 594.6624 
L 1264.896 133.632 
L 759.063273 133.632 
z
" style="fill:#ffffff;"/>
   </g>
   <g id="PathCollection_9">
    <g clip-path="url(#p66bfc30c66)">
     <use style="fill:#008000;stroke:#008000;" x="954.545294" xlink:href="#m61d38616b2" y="421.10981"/>
     <use style="fill:#008000;stroke:#008000;" x="914.891366" xlink:href="#m61d38616b2" y="386.040194"/>
     <use style="fill:#008000;stroke:#008000;" x="830.626769" xlink:href="#m61d38616b2" y="350.970579"/>
    </g>
   </g>
   <g id="PathCollection_10">
    <g clip-path="url(#p66bfc30c66)">
     <use style="fill:#ff0000;stroke:#ff0000;" x="1227.166051" xlink:href="#m00c5c37b4d" y="524.01901"/>
     <use style="fill:#ff0000;stroke:#ff0000;" x="1128.031231" xlink:href="#m00c5c37b4d" y="484.925012"/>
     <use style="fill:#ff0000;stroke:#ff0000;" x="914.891366" xlink:href="#m00c5c37b4d" y="396.388606"/>
    </g>
   </g>
   <g id="PathCollection_11">
    <g clip-path="url(#p66bfc30c66)">
     <use style="fill:#00bfbf;stroke:#00bfbf;" x="1142.901454" xlink:href="#mbe194b9dd3" y="570.011949"/>
     <use style="fill:#00bfbf;stroke:#00bfbf;" x="1073.507079" xlink:href="#mbe194b9dd3" y="566.562479"/>
     <use style="fill:#00bfbf;stroke:#00bfbf;" x="890.107661" xlink:href="#mbe194b9dd3" y="441.231721"/>
    </g>
   </g>
   <g id="PathCollection_12">
    <g clip-path="url(#p66bfc30c66)">
     <use style="fill:#0000ff;stroke:#0000ff;" x="1123.074489" xlink:href="#md3d5f86757" y="460.203808"/>
     <use style="fill:#0000ff;stroke:#0000ff;" x="1053.680115" xlink:href="#md3d5f86757" y="435.482603"/>
     <use style="fill:#0000ff;stroke:#0000ff;" x="880.194179" xlink:href="#md3d5f86757" y="363.043725"/>
    </g>
   </g>
   <g id="PathCollection_13">
    <g clip-path="url(#p66bfc30c66)">
     <use style="fill:#bf00bf;stroke:#bf00bf;" x="1142.901454" xlink:href="#mb19dab37b3" y="294.054317"/>
     <use style="fill:#bf00bf;stroke:#bf00bf;" x="1063.593597" xlink:href="#mb19dab37b3" y="283.705906"/>
     <use style="fill:#bf00bf;stroke:#bf00bf;" x="885.15092" xlink:href="#mb19dab37b3" y="161.249707"/>
    </g>
   </g>
   <g id="PathCollection_14">
    <g clip-path="url(#p66bfc30c66)">
     <use style="fill:#00ffff;stroke:#00ffff;" x="900.021143" xlink:href="#mffb1b4ce36" y="431.458221"/>
     <use style="fill:#00ffff;stroke:#00ffff;" x="885.15092" xlink:href="#mffb1b4ce36" y="383.740548"/>
     <use style="fill:#00ffff;stroke:#00ffff;" x="795.929582" xlink:href="#mffb1b4ce36" y="352.695314"/>
    </g>
   </g>
   <g id="PathCollection_15">
    <g clip-path="url(#p66bfc30c66)">
     <use style="fill:#800000;stroke:#800000;" x="909.934625" xlink:href="#m2342108aaa" y="413.635958"/>
     <use style="fill:#800000;stroke:#800000;" x="904.977884" xlink:href="#m2342108aaa" y="399.838076"/>
     <use style="fill:#800000;stroke:#800000;" x="805.843064" xlink:href="#m2342108aaa" y="335.447962"/>
    </g>
   </g>
   <g id="PathCollection_16">
    <g clip-path="url(#p66bfc30c66)">
     <use style="fill:#000080;stroke:#000080;" x="1187.512123" xlink:href="#mbd3b6cf5e3" y="458.479073"/>
     <use style="fill:#000080;stroke:#000080;" x="1128.031231" xlink:href="#mbd3b6cf5e3" y="420.534898"/>
     <use style="fill:#000080;stroke:#000080;" x="909.934625" xlink:href="#mbd3b6cf5e3" y="340.047256"/>
    </g>
   </g>
   <g id="PathCollection_17">
    <defs>
     <path d="M -7.071068 0 
L 7.071068 0 
M 0 7.071068 
L 0 -7.071068 
" id="meee67f8247" style="stroke:#c0c0c0;stroke-width:1.5;"/>
    </defs>
    <g clip-path="url(#p66bfc30c66)">
     <use style="fill:#c0c0c0;stroke:#c0c0c0;stroke-width:1.5;" x="1147.858195" xlink:href="#meee67f8247" y="527.468481"/>
     <use style="fill:#c0c0c0;stroke:#c0c0c0;stroke-width:1.5;" x="1212.295828" xlink:href="#meee67f8247" y="529.768128"/>
     <use style="fill:#c0c0c0;stroke:#c0c0c0;stroke-width:1.5;" x="939.675071" xlink:href="#meee67f8247" y="449.855397"/>
    </g>
   </g>
   <g id="PathCollection_18">
    <defs>
     <path d="M 0 -7.071068 
L -6.724985 -2.18508 
L -4.156269 5.720614 
L 4.156269 5.720614 
L 6.724985 -2.18508 
z
" id="mee5bf05930" style="stroke:#87ceeb;"/>
    </defs>
    <g clip-path="url(#p66bfc30c66)">
     <use style="fill:#87ceeb;stroke:#87ceeb;" x="1227.166051" xlink:href="#mee5bf05930" y="446.980838"/>
     <use style="fill:#87ceeb;stroke:#87ceeb;" x="1157.771677" xlink:href="#mee5bf05930" y="437.207339"/>
     <use style="fill:#87ceeb;stroke:#87ceeb;" x="914.891366" xlink:href="#mee5bf05930" y="333.723227"/>
    </g>
   </g>
   <g id="matplotlib.axis_3">
    <g id="xtick_6">
     <g id="line2d_21">
      <path clip-path="url(#p66bfc30c66)" d="M 840.540251 594.6624 
L 840.540251 133.632 
" style="fill:none;stroke:#bfbfbf;stroke-linecap:square;stroke-width:0.75;"/>
     </g>
     <g id="line2d_22">
      <g>
       <use style="stroke:#000000;stroke-width:0.8;" x="840.540251" xlink:href="#m6e46042239" y="594.6624"/>
      </g>
     </g>
     <g id="text_13">
      <!-- 6 -->
      <g transform="translate(837.359001 609.260837)scale(0.1 -0.1)">
       <use xlink:href="#DejaVuSans-54"/>
      </g>
     </g>
    </g>
    <g id="xtick_7">
     <g id="line2d_23">
      <path clip-path="url(#p66bfc30c66)" d="M 939.675071 594.6624 
L 939.675071 133.632 
" style="fill:none;stroke:#bfbfbf;stroke-linecap:square;stroke-width:0.75;"/>
     </g>
     <g id="line2d_24">
      <g>
       <use style="stroke:#000000;stroke-width:0.8;" x="939.675071" xlink:href="#m6e46042239" y="594.6624"/>
      </g>
     </g>
     <g id="text_14">
      <!-- 8 -->
      <g transform="translate(936.493821 609.260837)scale(0.1 -0.1)">
       <use xlink:href="#DejaVuSans-56"/>
      </g>
     </g>
    </g>
    <g id="xtick_8">
     <g id="line2d_25">
      <path clip-path="url(#p66bfc30c66)" d="M 1038.809892 594.6624 
L 1038.809892 133.632 
" style="fill:none;stroke:#bfbfbf;stroke-linecap:square;stroke-width:0.75;"/>
     </g>
     <g id="line2d_26">
      <g>
       <use style="stroke:#000000;stroke-width:0.8;" x="1038.809892" xlink:href="#m6e46042239" y="594.6624"/>
      </g>
     </g>
     <g id="text_15">
      <!-- 10 -->
      <g transform="translate(1032.447392 609.260837)scale(0.1 -0.1)">
       <use xlink:href="#DejaVuSans-49"/>
       <use x="63.623047" xlink:href="#DejaVuSans-48"/>
      </g>
     </g>
    </g>
    <g id="xtick_9">
     <g id="line2d_27">
      <path clip-path="url(#p66bfc30c66)" d="M 1137.944713 594.6624 
L 1137.944713 133.632 
" style="fill:none;stroke:#bfbfbf;stroke-linecap:square;stroke-width:0.75;"/>
     </g>
     <g id="line2d_28">
      <g>
       <use style="stroke:#000000;stroke-width:0.8;" x="1137.944713" xlink:href="#m6e46042239" y="594.6624"/>
      </g>
     </g>
     <g id="text_16">
      <!-- 12 -->
      <g transform="translate(1131.582213 609.260837)scale(0.1 -0.1)">
       <use xlink:href="#DejaVuSans-49"/>
       <use x="63.623047" xlink:href="#DejaVuSans-50"/>
      </g>
     </g>
    </g>
    <g id="xtick_10">
     <g id="line2d_29">
      <path clip-path="url(#p66bfc30c66)" d="M 1237.079533 594.6624 
L 1237.079533 133.632 
" style="fill:none;stroke:#bfbfbf;stroke-linecap:square;stroke-width:0.75;"/>
     </g>
     <g id="line2d_30">
      <g>
       <use style="stroke:#000000;stroke-width:0.8;" x="1237.079533" xlink:href="#m6e46042239" y="594.6624"/>
      </g>
     </g>
     <g id="text_17">
      <!-- 14 -->
      <g transform="translate(1230.717033 609.260837)scale(0.1 -0.1)">
       <use xlink:href="#DejaVuSans-49"/>
       <use x="63.623047" xlink:href="#DejaVuSans-52"/>
      </g>
     </g>
    </g>
    <g id="text_18">
     <!-- FPS -->
     <g transform="translate(986.598074 636.61615)scale(0.28 -0.28)">
      <use xlink:href="#DejaVuSans-70"/>
      <use x="57.519531" xlink:href="#DejaVuSans-80"/>
      <use x="117.822266" xlink:href="#DejaVuSans-83"/>
     </g>
    </g>
   </g>
   <g id="matplotlib.axis_4">
    <g id="ytick_6">
     <g id="line2d_31">
      <path clip-path="url(#p66bfc30c66)" d="M 759.063273 545.290744 
L 1264.896 545.290744 
" style="fill:none;stroke:#bfbfbf;stroke-linecap:square;stroke-width:0.75;"/>
     </g>
     <g id="line2d_32">
      <g>
       <use style="stroke:#000000;stroke-width:0.8;" x="759.063273" xlink:href="#m26d3f90648" y="545.290744"/>
      </g>
     </g>
     <g id="text_19">
      <!-- 49 -->
      <defs>
       <path d="M 10.984375 1.515625 
L 10.984375 10.5 
Q 14.703125 8.734375 18.5 7.8125 
Q 22.3125 6.890625 25.984375 6.890625 
Q 35.75 6.890625 40.890625 13.453125 
Q 46.046875 20.015625 46.78125 33.40625 
Q 43.953125 29.203125 39.59375 26.953125 
Q 35.25 24.703125 29.984375 24.703125 
Q 19.046875 24.703125 12.671875 31.3125 
Q 6.296875 37.9375 6.296875 49.421875 
Q 6.296875 60.640625 12.9375 67.421875 
Q 19.578125 74.21875 30.609375 74.21875 
Q 43.265625 74.21875 49.921875 64.515625 
Q 56.59375 54.828125 56.59375 36.375 
Q 56.59375 19.140625 48.40625 8.859375 
Q 40.234375 -1.421875 26.421875 -1.421875 
Q 22.703125 -1.421875 18.890625 -0.6875 
Q 15.09375 0.046875 10.984375 1.515625 
z
M 30.609375 32.421875 
Q 37.25 32.421875 41.125 36.953125 
Q 45.015625 41.5 45.015625 49.421875 
Q 45.015625 57.28125 41.125 61.84375 
Q 37.25 66.40625 30.609375 66.40625 
Q 23.96875 66.40625 20.09375 61.84375 
Q 16.21875 57.28125 16.21875 49.421875 
Q 16.21875 41.5 20.09375 36.953125 
Q 23.96875 32.421875 30.609375 32.421875 
z
" id="DejaVuSans-57"/>
      </defs>
      <g transform="translate(739.338273 549.089963)scale(0.1 -0.1)">
       <use xlink:href="#DejaVuSans-52"/>
       <use x="63.623047" xlink:href="#DejaVuSans-57"/>
      </g>
     </g>
    </g>
    <g id="ytick_7">
     <g id="line2d_33">
      <path clip-path="url(#p66bfc30c66)" d="M 759.063273 487.799571 
L 1264.896 487.799571 
" style="fill:none;stroke:#bfbfbf;stroke-linecap:square;stroke-width:0.75;"/>
     </g>
     <g id="line2d_34">
      <g>
       <use style="stroke:#000000;stroke-width:0.8;" x="759.063273" xlink:href="#m26d3f90648" y="487.799571"/>
      </g>
     </g>
     <g id="text_20">
      <!-- 50 -->
      <g transform="translate(739.338273 491.59879)scale(0.1 -0.1)">
       <use xlink:href="#DejaVuSans-53"/>
       <use x="63.623047" xlink:href="#DejaVuSans-48"/>
      </g>
     </g>
    </g>
    <g id="ytick_8">
     <g id="line2d_35">
      <path clip-path="url(#p66bfc30c66)" d="M 759.063273 430.308398 
L 1264.896 430.308398 
" style="fill:none;stroke:#bfbfbf;stroke-linecap:square;stroke-width:0.75;"/>
     </g>
     <g id="line2d_36">
      <g>
       <use style="stroke:#000000;stroke-width:0.8;" x="759.063273" xlink:href="#m26d3f90648" y="430.308398"/>
      </g>
     </g>
     <g id="text_21">
      <!-- 51 -->
      <g transform="translate(739.338273 434.107617)scale(0.1 -0.1)">
       <use xlink:href="#DejaVuSans-53"/>
       <use x="63.623047" xlink:href="#DejaVuSans-49"/>
      </g>
     </g>
    </g>
    <g id="ytick_9">
     <g id="line2d_37">
      <path clip-path="url(#p66bfc30c66)" d="M 759.063273 372.817225 
L 1264.896 372.817225 
" style="fill:none;stroke:#bfbfbf;stroke-linecap:square;stroke-width:0.75;"/>
     </g>
     <g id="line2d_38">
      <g>
       <use style="stroke:#000000;stroke-width:0.8;" x="759.063273" xlink:href="#m26d3f90648" y="372.817225"/>
      </g>
     </g>
     <g id="text_22">
      <!-- 52 -->
      <g transform="translate(739.338273 376.616443)scale(0.1 -0.1)">
       <use xlink:href="#DejaVuSans-53"/>
       <use x="63.623047" xlink:href="#DejaVuSans-50"/>
      </g>
     </g>
    </g>
    <g id="ytick_10">
     <g id="line2d_39">
      <path clip-path="url(#p66bfc30c66)" d="M 759.063273 315.326051 
L 1264.896 315.326051 
" style="fill:none;stroke:#bfbfbf;stroke-linecap:square;stroke-width:0.75;"/>
     </g>
     <g id="line2d_40">
      <g>
       <use style="stroke:#000000;stroke-width:0.8;" x="759.063273" xlink:href="#m26d3f90648" y="315.326051"/>
      </g>
     </g>
     <g id="text_23">
      <!-- 53 -->
      <defs>
       <path d="M 40.578125 39.3125 
Q 47.65625 37.796875 51.625 33 
Q 55.609375 28.21875 55.609375 21.1875 
Q 55.609375 10.40625 48.1875 4.484375 
Q 40.765625 -1.421875 27.09375 -1.421875 
Q 22.515625 -1.421875 17.65625 -0.515625 
Q 12.796875 0.390625 7.625 2.203125 
L 7.625 11.71875 
Q 11.71875 9.328125 16.59375 8.109375 
Q 21.484375 6.890625 26.8125 6.890625 
Q 36.078125 6.890625 40.9375 10.546875 
Q 45.796875 14.203125 45.796875 21.1875 
Q 45.796875 27.640625 41.28125 31.265625 
Q 36.765625 34.90625 28.71875 34.90625 
L 20.21875 34.90625 
L 20.21875 43.015625 
L 29.109375 43.015625 
Q 36.375 43.015625 40.234375 45.921875 
Q 44.09375 48.828125 44.09375 54.296875 
Q 44.09375 59.90625 40.109375 62.90625 
Q 36.140625 65.921875 28.71875 65.921875 
Q 24.65625 65.921875 20.015625 65.03125 
Q 15.375 64.15625 9.8125 62.3125 
L 9.8125 71.09375 
Q 15.4375 72.65625 20.34375 73.4375 
Q 25.25 74.21875 29.59375 74.21875 
Q 40.828125 74.21875 47.359375 69.109375 
Q 53.90625 64.015625 53.90625 55.328125 
Q 53.90625 49.265625 50.4375 45.09375 
Q 46.96875 40.921875 40.578125 39.3125 
z
" id="DejaVuSans-51"/>
      </defs>
      <g transform="translate(739.338273 319.12527)scale(0.1 -0.1)">
       <use xlink:href="#DejaVuSans-53"/>
       <use x="63.623047" xlink:href="#DejaVuSans-51"/>
      </g>
     </g>
    </g>
    <g id="ytick_11">
     <g id="line2d_41">
      <path clip-path="url(#p66bfc30c66)" d="M 759.063273 257.834878 
L 1264.896 257.834878 
" style="fill:none;stroke:#bfbfbf;stroke-linecap:square;stroke-width:0.75;"/>
     </g>
     <g id="line2d_42">
      <g>
       <use style="stroke:#000000;stroke-width:0.8;" x="759.063273" xlink:href="#m26d3f90648" y="257.834878"/>
      </g>
     </g>
     <g id="text_24">
      <!-- 54 -->
      <g transform="translate(739.338273 261.634097)scale(0.1 -0.1)">
       <use xlink:href="#DejaVuSans-53"/>
       <use x="63.623047" xlink:href="#DejaVuSans-52"/>
      </g>
     </g>
    </g>
    <g id="ytick_12">
     <g id="line2d_43">
      <path clip-path="url(#p66bfc30c66)" d="M 759.063273 200.343705 
L 1264.896 200.343705 
" style="fill:none;stroke:#bfbfbf;stroke-linecap:square;stroke-width:0.75;"/>
     </g>
     <g id="line2d_44">
      <g>
       <use style="stroke:#000000;stroke-width:0.8;" x="759.063273" xlink:href="#m26d3f90648" y="200.343705"/>
      </g>
     </g>
     <g id="text_25">
      <!-- 55 -->
      <g transform="translate(739.338273 204.142924)scale(0.1 -0.1)">
       <use xlink:href="#DejaVuSans-53"/>
       <use x="63.623047" xlink:href="#DejaVuSans-53"/>
      </g>
     </g>
    </g>
    <g id="ytick_13">
     <g id="line2d_45">
      <path clip-path="url(#p66bfc30c66)" d="M 759.063273 142.852531 
L 1264.896 142.852531 
" style="fill:none;stroke:#bfbfbf;stroke-linecap:square;stroke-width:0.75;"/>
     </g>
     <g id="line2d_46">
      <g>
       <use style="stroke:#000000;stroke-width:0.8;" x="759.063273" xlink:href="#m26d3f90648" y="142.852531"/>
      </g>
     </g>
     <g id="text_26">
      <!-- 56 -->
      <g transform="translate(739.338273 146.65175)scale(0.1 -0.1)">
       <use xlink:href="#DejaVuSans-53"/>
       <use x="63.623047" xlink:href="#DejaVuSans-54"/>
      </g>
     </g>
    </g>
    <g id="text_27">
     <!-- HBB mAP (%) -->
     <defs>
      <path d="M 9.8125 72.90625 
L 19.671875 72.90625 
L 19.671875 43.015625 
L 55.515625 43.015625 
L 55.515625 72.90625 
L 65.375 72.90625 
L 65.375 0 
L 55.515625 0 
L 55.515625 34.71875 
L 19.671875 34.71875 
L 19.671875 0 
L 9.8125 0 
z
" id="DejaVuSans-72"/>
     </defs>
     <g transform="translate(729.515148 458.666888)rotate(-90)scale(0.28 -0.28)">
      <use xlink:href="#DejaVuSans-72"/>
      <use x="75.195312" xlink:href="#DejaVuSans-66"/>
      <use x="143.798828" xlink:href="#DejaVuSans-66"/>
      <use x="212.402344" xlink:href="#DejaVuSans-32"/>
      <use x="244.189453" xlink:href="#DejaVuSans-109"/>
      <use x="341.601562" xlink:href="#DejaVuSans-65"/>
      <use x="410.009766" xlink:href="#DejaVuSans-80"/>
      <use x="470.3125" xlink:href="#DejaVuSans-32"/>
      <use x="502.099609" xlink:href="#DejaVuSans-40"/>
      <use x="541.113281" xlink:href="#DejaVuSans-37"/>
      <use x="636.132812" xlink:href="#DejaVuSans-41"/>
     </g>
    </g>
   </g>
   <g id="patch_8">
    <path d="M 759.063273 594.6624 
L 759.063273 133.632 
" style="fill:none;stroke:#000000;stroke-linecap:square;stroke-linejoin:miter;stroke-width:0.8;"/>
   </g>
   <g id="patch_9">
    <path d="M 1264.896 594.6624 
L 1264.896 133.632 
" style="fill:none;stroke:#000000;stroke-linecap:square;stroke-linejoin:miter;stroke-width:0.8;"/>
   </g>
   <g id="patch_10">
    <path d="M 759.063273 594.6624 
L 1264.896 594.6624 
" style="fill:none;stroke:#000000;stroke-linecap:square;stroke-linejoin:miter;stroke-width:0.8;"/>
   </g>
   <g id="patch_11">
    <path d="M 759.063273 133.632 
L 1264.896 133.632 
" style="fill:none;stroke:#000000;stroke-linecap:square;stroke-linejoin:miter;stroke-width:0.8;"/>
   </g>
   <g id="legend_1">
    <g id="patch_12">
     <path d="M 166.093344 110.389982 
L 1251.596 110.389982 
Q 1255.396 110.389982 1255.396 106.589983 
L 1255.396 54.72592 
Q 1255.396 50.92592 1251.596 50.92592 
L 166.093344 50.92592 
Q 162.293344 50.92592 162.293344 54.72592 
L 162.293344 106.589983 
Q 162.293344 110.389982 166.093344 110.389982 
z
" style="fill:#ffffff;opacity:0.8;stroke:#cccccc;stroke-linejoin:miter;"/>
    </g>
    <g id="PathCollection_19">
     <g>
      <use style="fill:#008000;stroke:#008000;" x="188.893344" xlink:href="#m61d38616b2" y="66.83842"/>
     </g>
    </g>
    <g id="text_28">
     <!-- Mask RCNN -->
     <defs>
      <path d="M 40.921875 0 
L 15.328125 55.71875 
L 15.328125 11.46875 
Q 15.328125 5.375 16.65625 3.859375 
Q 18.453125 1.8125 22.359375 1.8125 
L 24.703125 1.8125 
L 24.703125 0 
L 1.65625 0 
L 1.65625 1.8125 
L 4 1.8125 
Q 8.203125 1.8125 9.96875 4.34375 
Q 11.03125 5.90625 11.03125 11.46875 
L 11.03125 54.734375 
Q 11.03125 59.125 10.0625 61.078125 
Q 9.375 62.5 7.546875 63.453125 
Q 5.71875 64.40625 1.65625 64.40625 
L 1.65625 66.21875 
L 20.40625 66.21875 
L 44.4375 14.40625 
L 68.0625 66.21875 
L 86.8125 66.21875 
L 86.8125 64.40625 
L 84.515625 64.40625 
Q 80.28125 64.40625 78.515625 61.859375 
Q 77.4375 60.296875 77.4375 54.734375 
L 77.4375 11.46875 
Q 77.4375 5.375 78.8125 3.859375 
Q 80.609375 1.8125 84.515625 1.8125 
L 86.8125 1.8125 
L 86.8125 0 
L 58.6875 0 
L 58.6875 1.8125 
L 61.03125 1.8125 
Q 65.28125 1.8125 67 4.34375 
Q 68.0625 5.90625 68.0625 11.46875 
L 68.0625 55.71875 
L 42.53125 0 
z
" id="TimesNewRomanPSMT-77"/>
      <path d="M 28.46875 6.453125 
Q 21.578125 1.125 19.828125 0.296875 
Q 17.1875 -0.921875 14.203125 -0.921875 
Q 9.578125 -0.921875 6.5625 2.25 
Q 3.5625 5.421875 3.5625 10.59375 
Q 3.5625 13.875 5.03125 16.265625 
Q 7.03125 19.578125 11.984375 22.5 
Q 16.9375 25.4375 28.46875 29.640625 
L 28.46875 31.390625 
Q 28.46875 38.09375 26.34375 40.578125 
Q 24.21875 43.0625 20.171875 43.0625 
Q 17.09375 43.0625 15.28125 41.40625 
Q 13.421875 39.75 13.421875 37.59375 
L 13.53125 34.765625 
Q 13.53125 32.515625 12.375 31.296875 
Q 11.234375 30.078125 9.375 30.078125 
Q 7.5625 30.078125 6.421875 31.34375 
Q 5.28125 32.625 5.28125 34.8125 
Q 5.28125 39.015625 9.578125 42.53125 
Q 13.875 46.046875 21.625 46.046875 
Q 27.59375 46.046875 31.390625 44.046875 
Q 34.28125 42.53125 35.640625 39.3125 
Q 36.53125 37.203125 36.53125 30.71875 
L 36.53125 15.53125 
Q 36.53125 9.125 36.765625 7.6875 
Q 37.015625 6.25 37.578125 5.765625 
Q 38.140625 5.28125 38.875 5.28125 
Q 39.65625 5.28125 40.234375 5.609375 
Q 41.265625 6.25 44.1875 9.1875 
L 44.1875 6.453125 
Q 38.71875 -0.875 33.734375 -0.875 
Q 31.34375 -0.875 29.921875 0.78125 
Q 28.515625 2.4375 28.46875 6.453125 
z
M 28.46875 9.625 
L 28.46875 26.65625 
Q 21.09375 23.734375 18.953125 22.515625 
Q 15.09375 20.359375 13.421875 18.015625 
Q 11.765625 15.671875 11.765625 12.890625 
Q 11.765625 9.375 13.859375 7.046875 
Q 15.96875 4.734375 18.703125 4.734375 
Q 22.40625 4.734375 28.46875 9.625 
z
" id="TimesNewRomanPSMT-97"/>
      <path d="M 32.03125 46.046875 
L 32.03125 30.8125 
L 30.421875 30.8125 
Q 28.5625 37.984375 25.65625 40.578125 
Q 22.75 43.171875 18.265625 43.171875 
Q 14.84375 43.171875 12.734375 41.359375 
Q 10.640625 39.546875 10.640625 37.359375 
Q 10.640625 34.625 12.203125 32.671875 
Q 13.71875 30.671875 18.359375 28.421875 
L 25.484375 24.953125 
Q 35.40625 20.125 35.40625 12.203125 
Q 35.40625 6.109375 30.78125 2.359375 
Q 26.171875 -1.375 20.453125 -1.375 
Q 16.359375 -1.375 11.078125 0.09375 
Q 9.46875 0.59375 8.453125 0.59375 
Q 7.328125 0.59375 6.6875 -0.6875 
L 5.078125 -0.6875 
L 5.078125 15.28125 
L 6.6875 15.28125 
Q 8.0625 8.453125 11.90625 4.984375 
Q 15.765625 1.515625 20.5625 1.515625 
Q 23.921875 1.515625 26.046875 3.484375 
Q 28.171875 5.46875 28.171875 8.25 
Q 28.171875 11.625 25.796875 13.921875 
Q 23.4375 16.21875 16.359375 19.734375 
Q 9.28125 23.25 7.078125 26.078125 
Q 4.890625 28.859375 4.890625 33.109375 
Q 4.890625 38.625 8.671875 42.328125 
Q 12.453125 46.046875 18.453125 46.046875 
Q 21.09375 46.046875 24.859375 44.921875 
Q 27.34375 44.1875 28.171875 44.1875 
Q 28.953125 44.1875 29.390625 44.53125 
Q 29.828125 44.875 30.421875 46.046875 
z
" id="TimesNewRomanPSMT-115"/>
      <path d="M 16.359375 69.4375 
L 16.359375 24.953125 
L 27.734375 35.296875 
Q 31.34375 38.625 31.9375 39.5 
Q 32.328125 40.09375 32.328125 40.671875 
Q 32.328125 41.65625 31.515625 42.359375 
Q 30.71875 43.0625 28.859375 43.171875 
L 28.859375 44.734375 
L 48.296875 44.734375 
L 48.296875 43.171875 
Q 44.28125 43.0625 41.625 41.9375 
Q 38.96875 40.828125 35.796875 37.9375 
L 24.3125 27.34375 
L 35.796875 12.84375 
Q 40.578125 6.84375 42.234375 5.21875 
Q 44.578125 2.9375 46.34375 2.25 
Q 47.5625 1.765625 50.59375 1.765625 
L 50.59375 0 
L 28.859375 0 
L 28.859375 1.765625 
Q 30.71875 1.8125 31.375 2.3125 
Q 32.03125 2.828125 32.03125 3.765625 
Q 32.03125 4.890625 30.078125 7.375 
L 16.359375 24.90625 
L 16.359375 10.0625 
Q 16.359375 5.71875 16.96875 4.34375 
Q 17.578125 2.984375 18.703125 2.390625 
Q 19.828125 1.8125 23.578125 1.765625 
L 23.578125 0 
L 0.828125 0 
L 0.828125 1.765625 
Q 4.25 1.765625 5.953125 2.59375 
Q 6.984375 3.125 7.515625 4.25 
Q 8.25 5.859375 8.25 9.8125 
L 8.25 50.53125 
Q 8.25 58.296875 7.90625 60.03125 
Q 7.5625 61.765625 6.78125 62.421875 
Q 6 63.09375 4.734375 63.09375 
Q 3.71875 63.09375 1.65625 62.25 
L 0.828125 63.96875 
L 14.109375 69.4375 
z
" id="TimesNewRomanPSMT-107"/>
      <path id="TimesNewRomanPSMT-32"/>
      <path d="M 67.578125 0 
L 49.90625 0 
L 27.484375 30.953125 
Q 25 30.859375 23.4375 30.859375 
Q 22.796875 30.859375 22.0625 30.875 
Q 21.34375 30.90625 20.5625 30.953125 
L 20.5625 11.71875 
Q 20.5625 5.46875 21.921875 3.953125 
Q 23.78125 1.8125 27.484375 1.8125 
L 30.078125 1.8125 
L 30.078125 0 
L 1.703125 0 
L 1.703125 1.8125 
L 4.203125 1.8125 
Q 8.40625 1.8125 10.203125 4.546875 
Q 11.234375 6.0625 11.234375 11.71875 
L 11.234375 54.5 
Q 11.234375 60.75 9.859375 62.25 
Q 7.953125 64.40625 4.203125 64.40625 
L 1.703125 64.40625 
L 1.703125 66.21875 
L 25.828125 66.21875 
Q 36.375 66.21875 41.375 64.671875 
Q 46.390625 63.140625 49.875 59.015625 
Q 53.375 54.890625 53.375 49.171875 
Q 53.375 43.0625 49.390625 38.5625 
Q 45.40625 34.078125 37.0625 32.234375 
L 50.734375 13.234375 
Q 55.421875 6.6875 58.78125 4.53125 
Q 62.15625 2.390625 67.578125 1.8125 
z
M 20.5625 34.03125 
Q 21.484375 34.03125 22.171875 34 
Q 22.859375 33.984375 23.296875 33.984375 
Q 32.765625 33.984375 37.578125 38.078125 
Q 42.390625 42.1875 42.390625 48.53125 
Q 42.390625 54.734375 38.5 58.609375 
Q 34.625 62.5 28.21875 62.5 
Q 25.390625 62.5 20.5625 61.578125 
z
" id="TimesNewRomanPSMT-82"/>
      <path d="M 60.203125 67.71875 
L 61.71875 45.21875 
L 60.203125 45.21875 
Q 57.171875 55.328125 51.5625 59.765625 
Q 45.953125 64.203125 38.09375 64.203125 
Q 31.5 64.203125 26.171875 60.859375 
Q 20.84375 57.515625 17.796875 50.1875 
Q 14.75 42.875 14.75 31.984375 
Q 14.75 23 17.625 16.40625 
Q 20.515625 9.8125 26.296875 6.296875 
Q 32.078125 2.78125 39.5 2.78125 
Q 45.953125 2.78125 50.875 5.53125 
Q 55.8125 8.296875 61.71875 16.5 
L 63.234375 15.53125 
Q 58.25 6.6875 51.609375 2.578125 
Q 44.96875 -1.515625 35.84375 -1.515625 
Q 19.390625 -1.515625 10.359375 10.6875 
Q 3.609375 19.78125 3.609375 32.078125 
Q 3.609375 42 8.046875 50.296875 
Q 12.5 58.59375 20.28125 63.15625 
Q 28.078125 67.71875 37.3125 67.71875 
Q 44.484375 67.71875 51.46875 64.203125 
Q 53.515625 63.140625 54.390625 63.140625 
Q 55.71875 63.140625 56.6875 64.0625 
Q 57.953125 65.375 58.5 67.71875 
z
" id="TimesNewRomanPSMT-67"/>
      <path d="M -1.3125 66.21875 
L 16.65625 66.21875 
L 57.125 16.546875 
L 57.125 54.734375 
Q 57.125 60.84375 55.765625 62.359375 
Q 53.953125 64.40625 50.046875 64.40625 
L 47.75 64.40625 
L 47.75 66.21875 
L 70.796875 66.21875 
L 70.796875 64.40625 
L 68.453125 64.40625 
Q 64.265625 64.40625 62.5 61.859375 
Q 61.421875 60.296875 61.421875 54.734375 
L 61.421875 -1.078125 
L 59.671875 -1.078125 
L 16.015625 52.25 
L 16.015625 11.46875 
Q 16.015625 5.375 17.328125 3.859375 
Q 19.1875 1.8125 23.046875 1.8125 
L 25.390625 1.8125 
L 25.390625 0 
L 2.34375 0 
L 2.34375 1.8125 
L 4.640625 1.8125 
Q 8.890625 1.8125 10.640625 4.34375 
Q 11.71875 5.90625 11.71875 11.46875 
L 11.71875 57.515625 
Q 8.84375 60.890625 7.34375 61.953125 
Q 5.859375 63.03125 2.984375 63.96875 
Q 1.5625 64.40625 -1.3125 64.40625 
z
" id="TimesNewRomanPSMT-78"/>
     </defs>
     <g transform="translate(223.093344 71.82592)scale(0.19 -0.19)">
      <use xlink:href="#TimesNewRomanPSMT-77"/>
      <use x="88.916016" xlink:href="#TimesNewRomanPSMT-97"/>
      <use x="133.300781" xlink:href="#TimesNewRomanPSMT-115"/>
      <use x="172.216797" xlink:href="#TimesNewRomanPSMT-107"/>
      <use x="222.216797" xlink:href="#TimesNewRomanPSMT-32"/>
      <use x="247.216797" xlink:href="#TimesNewRomanPSMT-82"/>
      <use x="313.916016" xlink:href="#TimesNewRomanPSMT-67"/>
      <use x="380.615234" xlink:href="#TimesNewRomanPSMT-78"/>
      <use x="452.832031" xlink:href="#TimesNewRomanPSMT-78"/>
     </g>
    </g>
    <g id="PathCollection_20">
     <g>
      <use style="fill:#ff0000;stroke:#ff0000;" x="188.893344" xlink:href="#m00c5c37b4d" y="93.702639"/>
     </g>
    </g>
    <g id="text_29">
     <!-- FR-O* -->
     <defs>
      <path d="M 20.453125 62.59375 
L 20.453125 36.578125 
L 32.515625 36.578125 
Q 36.671875 36.578125 38.59375 38.40625 
Q 40.53125 40.234375 41.15625 45.65625 
L 42.96875 45.65625 
L 42.96875 23.25 
L 41.15625 23.25 
Q 41.109375 27.09375 40.15625 28.90625 
Q 39.203125 30.71875 37.515625 31.609375 
Q 35.84375 32.515625 32.515625 32.515625 
L 20.453125 32.515625 
L 20.453125 11.71875 
Q 20.453125 6.6875 21.09375 5.078125 
Q 21.578125 3.859375 23.140625 2.984375 
Q 25.296875 1.8125 27.640625 1.8125 
L 30.03125 1.8125 
L 30.03125 0 
L 1.609375 0 
L 1.609375 1.8125 
L 3.953125 1.8125 
Q 8.0625 1.8125 9.90625 4.203125 
Q 11.078125 5.765625 11.078125 11.71875 
L 11.078125 54.5 
Q 11.078125 59.515625 10.453125 61.140625 
Q 9.96875 62.359375 8.453125 63.234375 
Q 6.34375 64.40625 3.953125 64.40625 
L 1.609375 64.40625 
L 1.609375 66.21875 
L 50.875 66.21875 
L 51.515625 51.65625 
L 49.8125 51.65625 
Q 48.53125 56.296875 46.84375 58.46875 
Q 45.171875 60.640625 42.703125 61.609375 
Q 40.234375 62.59375 35.0625 62.59375 
z
" id="TimesNewRomanPSMT-70"/>
      <path d="M 4.046875 26.125 
L 29.296875 26.125 
L 29.296875 18.75 
L 4.046875 18.75 
z
" id="TimesNewRomanPSMT-45"/>
      <path d="M 36.578125 67.71875 
Q 49.46875 67.71875 58.90625 57.921875 
Q 68.359375 48.140625 68.359375 33.5 
Q 68.359375 18.40625 58.828125 8.4375 
Q 49.3125 -1.515625 35.796875 -1.515625 
Q 22.125 -1.515625 12.8125 8.203125 
Q 3.515625 17.921875 3.515625 33.34375 
Q 3.515625 49.125 14.265625 59.078125 
Q 23.578125 67.71875 36.578125 67.71875 
z
M 35.640625 64.15625 
Q 26.765625 64.15625 21.390625 57.5625 
Q 14.703125 49.359375 14.703125 33.546875 
Q 14.703125 17.328125 21.625 8.59375 
Q 26.953125 1.953125 35.6875 1.953125 
Q 45.015625 1.953125 51.09375 9.21875 
Q 57.171875 16.5 57.171875 32.171875 
Q 57.171875 49.171875 50.484375 57.515625 
Q 45.125 64.15625 35.640625 64.15625 
z
" id="TimesNewRomanPSMT-79"/>
      <path d="M 24.125 50.984375 
Q 23.921875 54.34375 22.75 57.671875 
Q 21.09375 62.453125 21.09375 64.265625 
Q 21.09375 66.796875 22.28125 68.109375 
Q 23.484375 69.4375 25.25 69.4375 
Q 26.765625 69.4375 27.875 68.109375 
Q 29 66.796875 29 64.359375 
Q 29 62.15625 27.703125 58.21875 
Q 26.421875 54.296875 26.125 50.984375 
Q 28.8125 52.6875 30.953125 55.125 
Q 34.28125 58.984375 35.890625 59.90625 
Q 37.5 60.84375 39.15625 60.84375 
Q 40.765625 60.84375 41.859375 59.734375 
Q 42.96875 58.640625 42.96875 57.125 
Q 42.96875 55.328125 41.359375 53.90625 
Q 39.75 52.484375 33.296875 51.078125 
Q 29.546875 50.25 27.046875 49.171875 
Q 29.59375 47.859375 33.25 47.171875 
Q 39.15625 46.09375 40.984375 44.484375 
Q 42.828125 42.875 42.828125 40.96875 
Q 42.828125 39.5 41.71875 38.421875 
Q 40.625 37.359375 39.15625 37.359375 
Q 37.703125 37.359375 35.90625 38.375 
Q 34.125 39.40625 31.109375 42.96875 
Q 29.109375 45.359375 26.125 47.46875 
Q 26.21875 44.671875 27.25 41.40625 
Q 29 35.640625 29 33.546875 
Q 29 31.59375 27.828125 30.25 
Q 26.65625 28.90625 25.34375 28.90625 
Q 23.53125 28.90625 22.078125 30.328125 
Q 21.046875 31.34375 21.046875 33.59375 
Q 21.046875 35.9375 22.171875 39.234375 
Q 23.296875 42.53125 23.578125 43.765625 
Q 23.875 45.015625 24.125 47.46875 
Q 21.234375 45.5625 19.09375 43.21875 
Q 15.53125 39.203125 13.71875 38.140625 
Q 12.453125 37.359375 11.078125 37.359375 
Q 9.421875 37.359375 8.25 38.46875 
Q 7.078125 39.59375 7.078125 40.96875 
Q 7.078125 42.1875 8.078125 43.53125 
Q 9.078125 44.875 11.078125 45.75 
Q 12.40625 46.34375 17.09375 47.3125 
Q 20.125 47.953125 23 49.171875 
Q 20.359375 50.484375 16.703125 51.21875 
Q 10.6875 52.484375 9.28125 53.515625 
Q 7.078125 55.125 7.078125 57.421875 
Q 7.078125 58.734375 8.171875 59.828125 
Q 9.28125 60.9375 10.75 60.9375 
Q 12.359375 60.9375 14.15625 59.90625 
Q 15.96875 58.890625 18.65625 55.78125 
Q 21.34375 52.6875 24.125 50.984375 
z
" id="TimesNewRomanPSMT-42"/>
     </defs>
     <g transform="translate(223.093344 98.690139)scale(0.19 -0.19)">
      <use xlink:href="#TimesNewRomanPSMT-70"/>
      <use x="55.615234" xlink:href="#TimesNewRomanPSMT-82"/>
      <use x="122.314453" xlink:href="#TimesNewRomanPSMT-45"/>
      <use x="155.615234" xlink:href="#TimesNewRomanPSMT-79"/>
      <use x="227.832031" xlink:href="#TimesNewRomanPSMT-42"/>
     </g>
    </g>
    <g id="PathCollection_21">
     <g>
      <use style="fill:#00bfbf;stroke:#00bfbf;" x="379.858187" xlink:href="#mbe194b9dd3" y="66.83842"/>
     </g>
    </g>
    <g id="text_30">
     <!-- RetinaNet-O -->
     <defs>
      <path d="M 10.640625 27.875 
Q 10.59375 17.921875 15.484375 12.25 
Q 20.359375 6.59375 26.953125 6.59375 
Q 31.34375 6.59375 34.59375 9 
Q 37.84375 11.421875 40.046875 17.28125 
L 41.546875 16.3125 
Q 40.53125 9.625 35.59375 4.125 
Q 30.671875 -1.375 23.25 -1.375 
Q 15.1875 -1.375 9.453125 4.90625 
Q 3.71875 11.1875 3.71875 21.78125 
Q 3.71875 33.25 9.59375 39.671875 
Q 15.484375 46.09375 24.359375 46.09375 
Q 31.890625 46.09375 36.71875 41.140625 
Q 41.546875 36.1875 41.546875 27.875 
z
M 10.640625 30.71875 
L 31.34375 30.71875 
Q 31.109375 35.015625 30.328125 36.765625 
Q 29.109375 39.5 26.6875 41.0625 
Q 24.265625 42.625 21.625 42.625 
Q 17.578125 42.625 14.375 39.46875 
Q 11.1875 36.328125 10.640625 30.71875 
z
" id="TimesNewRomanPSMT-101"/>
      <path d="M 16.109375 59.421875 
L 16.109375 44.734375 
L 26.5625 44.734375 
L 26.5625 41.3125 
L 16.109375 41.3125 
L 16.109375 12.3125 
Q 16.109375 7.953125 17.359375 6.4375 
Q 18.609375 4.9375 20.5625 4.9375 
Q 22.171875 4.9375 23.6875 5.9375 
Q 25.203125 6.9375 26.03125 8.890625 
L 27.9375 8.890625 
Q 26.21875 4.109375 23.09375 1.6875 
Q 19.96875 -0.734375 16.65625 -0.734375 
Q 14.40625 -0.734375 12.25 0.515625 
Q 10.109375 1.765625 9.078125 4.078125 
Q 8.0625 6.390625 8.0625 11.234375 
L 8.0625 41.3125 
L 0.984375 41.3125 
L 0.984375 42.921875 
Q 3.65625 44 6.46875 46.5625 
Q 9.28125 49.125 11.46875 52.640625 
Q 12.59375 54.5 14.59375 59.421875 
z
" id="TimesNewRomanPSMT-116"/>
      <path d="M 14.5 69.4375 
Q 16.546875 69.4375 17.984375 67.984375 
Q 19.4375 66.546875 19.4375 64.5 
Q 19.4375 62.453125 17.984375 60.984375 
Q 16.546875 59.515625 14.5 59.515625 
Q 12.453125 59.515625 10.984375 60.984375 
Q 9.515625 62.453125 9.515625 64.5 
Q 9.515625 66.546875 10.953125 67.984375 
Q 12.40625 69.4375 14.5 69.4375 
z
M 18.5625 46.046875 
L 18.5625 10.109375 
Q 18.5625 5.90625 19.171875 4.515625 
Q 19.78125 3.125 20.96875 2.4375 
Q 22.171875 1.765625 25.34375 1.765625 
L 25.34375 0 
L 3.609375 0 
L 3.609375 1.765625 
Q 6.890625 1.765625 8 2.390625 
Q 9.125 3.03125 9.78125 4.484375 
Q 10.453125 5.953125 10.453125 10.109375 
L 10.453125 27.34375 
Q 10.453125 34.625 10.015625 36.765625 
Q 9.671875 38.328125 8.9375 38.9375 
Q 8.203125 39.546875 6.9375 39.546875 
Q 5.5625 39.546875 3.609375 38.8125 
L 2.9375 40.578125 
L 16.40625 46.046875 
z
" id="TimesNewRomanPSMT-105"/>
      <path d="M 16.15625 36.578125 
Q 24.03125 46.046875 31.15625 46.046875 
Q 34.8125 46.046875 37.453125 44.21875 
Q 40.09375 42.390625 41.65625 38.1875 
Q 42.71875 35.25 42.71875 29.203125 
L 42.71875 10.109375 
Q 42.71875 5.859375 43.40625 4.34375 
Q 43.953125 3.125 45.140625 2.4375 
Q 46.34375 1.765625 49.5625 1.765625 
L 49.5625 0 
L 27.4375 0 
L 27.4375 1.765625 
L 28.375 1.765625 
Q 31.5 1.765625 32.734375 2.703125 
Q 33.984375 3.65625 34.46875 5.515625 
Q 34.671875 6.25 34.671875 10.109375 
L 34.671875 28.421875 
Q 34.671875 34.515625 33.078125 37.28125 
Q 31.5 40.046875 27.734375 40.046875 
Q 21.921875 40.046875 16.15625 33.6875 
L 16.15625 10.109375 
Q 16.15625 5.5625 16.703125 4.5 
Q 17.390625 3.078125 18.578125 2.421875 
Q 19.78125 1.765625 23.4375 1.765625 
L 23.4375 0 
L 1.3125 0 
L 1.3125 1.765625 
L 2.296875 1.765625 
Q 5.71875 1.765625 6.90625 3.484375 
Q 8.109375 5.21875 8.109375 10.109375 
L 8.109375 26.703125 
Q 8.109375 34.765625 7.734375 36.515625 
Q 7.375 38.28125 6.609375 38.90625 
Q 5.859375 39.546875 4.59375 39.546875 
Q 3.21875 39.546875 1.3125 38.8125 
L 0.59375 40.578125 
L 14.0625 46.046875 
L 16.15625 46.046875 
z
" id="TimesNewRomanPSMT-110"/>
     </defs>
     <g transform="translate(414.058187 71.82592)scale(0.19 -0.19)">
      <use xlink:href="#TimesNewRomanPSMT-82"/>
      <use x="66.699219" xlink:href="#TimesNewRomanPSMT-101"/>
      <use x="111.083984" xlink:href="#TimesNewRomanPSMT-116"/>
      <use x="138.867188" xlink:href="#TimesNewRomanPSMT-105"/>
      <use x="166.650391" xlink:href="#TimesNewRomanPSMT-110"/>
      <use x="216.650391" xlink:href="#TimesNewRomanPSMT-97"/>
      <use x="261.035156" xlink:href="#TimesNewRomanPSMT-78"/>
      <use x="333.251953" xlink:href="#TimesNewRomanPSMT-101"/>
      <use x="377.636719" xlink:href="#TimesNewRomanPSMT-116"/>
      <use x="405.419922" xlink:href="#TimesNewRomanPSMT-45"/>
      <use x="438.720703" xlink:href="#TimesNewRomanPSMT-79"/>
     </g>
    </g>
    <g id="PathCollection_22">
     <g>
      <use style="fill:#0000ff;stroke:#0000ff;" x="379.858187" xlink:href="#md3d5f86757" y="93.702639"/>
     </g>
    </g>
    <g id="text_31">
     <!-- FR-O* + Dpool -->
     <defs>
      <path d="M 26.125 6.890625 
L 26.125 31.25 
L 1.8125 31.25 
L 1.8125 35.25 
L 26.125 35.25 
L 26.125 59.515625 
L 30.03125 59.515625 
L 30.03125 35.25 
L 54.4375 35.25 
L 54.4375 31.25 
L 30.03125 31.25 
L 30.03125 6.890625 
z
" id="TimesNewRomanPSMT-43"/>
      <path d="M 1.703125 0 
L 1.703125 1.8125 
L 4.203125 1.8125 
Q 8.40625 1.8125 10.15625 4.5 
Q 11.234375 6.109375 11.234375 11.71875 
L 11.234375 54.5 
Q 11.234375 60.6875 9.859375 62.25 
Q 7.953125 64.40625 4.203125 64.40625 
L 1.703125 64.40625 
L 1.703125 66.21875 
L 28.65625 66.21875 
Q 43.5 66.21875 51.234375 62.84375 
Q 58.984375 59.46875 63.6875 51.609375 
Q 68.40625 43.75 68.40625 33.453125 
Q 68.40625 19.625 60.015625 10.359375 
Q 50.59375 0 31.296875 0 
z
M 20.609375 4.78125 
Q 26.8125 3.421875 31 3.421875 
Q 42.328125 3.421875 49.796875 11.375 
Q 57.28125 19.34375 57.28125 32.953125 
Q 57.28125 46.6875 49.796875 54.59375 
Q 42.328125 62.5 30.609375 62.5 
Q 26.21875 62.5 20.609375 61.078125 
z
" id="TimesNewRomanPSMT-68"/>
      <path d="M -0.09375 40.28125 
L 13.671875 45.84375 
L 15.53125 45.84375 
L 15.53125 35.40625 
Q 19 41.3125 22.484375 43.671875 
Q 25.984375 46.046875 29.828125 46.046875 
Q 36.578125 46.046875 41.0625 40.765625 
Q 46.578125 34.328125 46.578125 23.96875 
Q 46.578125 12.40625 39.9375 4.828125 
Q 34.46875 -1.375 26.171875 -1.375 
Q 22.5625 -1.375 19.921875 -0.34375 
Q 17.96875 0.390625 15.53125 2.59375 
L 15.53125 -11.03125 
Q 15.53125 -15.625 16.09375 -16.859375 
Q 16.65625 -18.109375 18.046875 -18.84375 
Q 19.4375 -19.578125 23.09375 -19.578125 
L 23.09375 -21.390625 
L -0.34375 -21.390625 
L -0.34375 -19.578125 
L 0.875 -19.578125 
Q 3.5625 -19.625 5.46875 -18.5625 
Q 6.390625 -18.015625 6.90625 -16.8125 
Q 7.421875 -15.625 7.421875 -10.75 
L 7.421875 31.546875 
Q 7.421875 35.890625 7.03125 37.0625 
Q 6.640625 38.234375 5.78125 38.8125 
Q 4.9375 39.40625 3.46875 39.40625 
Q 2.296875 39.40625 0.484375 38.71875 
z
M 15.53125 32.515625 
L 15.53125 15.828125 
Q 15.53125 10.40625 15.96875 8.6875 
Q 16.65625 5.859375 19.3125 3.703125 
Q 21.96875 1.5625 26.03125 1.5625 
Q 30.90625 1.5625 33.9375 5.375 
Q 37.890625 10.359375 37.890625 19.390625 
Q 37.890625 29.640625 33.40625 35.15625 
Q 30.28125 38.96875 25.984375 38.96875 
Q 23.640625 38.96875 21.34375 37.796875 
Q 19.578125 36.921875 15.53125 32.515625 
z
" id="TimesNewRomanPSMT-112"/>
      <path d="M 25 46.046875 
Q 35.15625 46.046875 41.3125 38.328125 
Q 46.53125 31.734375 46.53125 23.1875 
Q 46.53125 17.1875 43.640625 11.03125 
Q 40.765625 4.890625 35.71875 1.75 
Q 30.671875 -1.375 24.46875 -1.375 
Q 14.359375 -1.375 8.40625 6.6875 
Q 3.375 13.484375 3.375 21.921875 
Q 3.375 28.078125 6.421875 34.15625 
Q 9.46875 40.234375 14.453125 43.140625 
Q 19.4375 46.046875 25 46.046875 
z
M 23.484375 42.875 
Q 20.90625 42.875 18.28125 41.328125 
Q 15.671875 39.796875 14.0625 35.9375 
Q 12.453125 32.078125 12.453125 26.03125 
Q 12.453125 16.265625 16.328125 9.171875 
Q 20.21875 2.09375 26.5625 2.09375 
Q 31.296875 2.09375 34.375 6 
Q 37.453125 9.90625 37.453125 19.4375 
Q 37.453125 31.34375 32.328125 38.1875 
Q 28.859375 42.875 23.484375 42.875 
z
" id="TimesNewRomanPSMT-111"/>
      <path d="M 18.5 69.4375 
L 18.5 10.109375 
Q 18.5 5.90625 19.109375 4.53125 
Q 19.734375 3.171875 21 2.46875 
Q 22.265625 1.765625 25.734375 1.765625 
L 25.734375 0 
L 3.8125 0 
L 3.8125 1.765625 
Q 6.890625 1.765625 8 2.390625 
Q 9.125 3.03125 9.765625 4.484375 
Q 10.40625 5.953125 10.40625 10.109375 
L 10.40625 50.734375 
Q 10.40625 58.296875 10.0625 60.03125 
Q 9.71875 61.765625 8.953125 62.390625 
Q 8.203125 63.03125 7.03125 63.03125 
Q 5.765625 63.03125 3.8125 62.25 
L 2.984375 63.96875 
L 16.3125 69.4375 
z
" id="TimesNewRomanPSMT-108"/>
     </defs>
     <g transform="translate(414.058187 98.690139)scale(0.19 -0.19)">
      <use xlink:href="#TimesNewRomanPSMT-70"/>
      <use x="55.615234" xlink:href="#TimesNewRomanPSMT-82"/>
      <use x="122.314453" xlink:href="#TimesNewRomanPSMT-45"/>
      <use x="155.615234" xlink:href="#TimesNewRomanPSMT-79"/>
      <use x="227.832031" xlink:href="#TimesNewRomanPSMT-42"/>
      <use x="277.832031" xlink:href="#TimesNewRomanPSMT-32"/>
      <use x="302.832031" xlink:href="#TimesNewRomanPSMT-43"/>
      <use x="359.228516" xlink:href="#TimesNewRomanPSMT-32"/>
      <use x="384.228516" xlink:href="#TimesNewRomanPSMT-68"/>
      <use x="456.445312" xlink:href="#TimesNewRomanPSMT-112"/>
      <use x="506.445312" xlink:href="#TimesNewRomanPSMT-111"/>
      <use x="556.445312" xlink:href="#TimesNewRomanPSMT-111"/>
      <use x="606.445312" xlink:href="#TimesNewRomanPSMT-108"/>
     </g>
    </g>
    <g id="PathCollection_23">
     <g>
      <use style="fill:#bf00bf;stroke:#bf00bf;" x="591.55975" xlink:href="#mb19dab37b3" y="66.83842"/>
     </g>
    </g>
    <g id="text_32">
     <!-- FR-O* + RT -->
     <defs>
      <path d="M 57.859375 66.21875 
L 58.59375 50.6875 
L 56.734375 50.6875 
Q 56.203125 54.78125 55.28125 56.546875 
Q 53.765625 59.375 51.25 60.71875 
Q 48.734375 62.0625 44.625 62.0625 
L 35.296875 62.0625 
L 35.296875 11.46875 
Q 35.296875 5.375 36.625 3.859375 
Q 38.484375 1.8125 42.328125 1.8125 
L 44.625 1.8125 
L 44.625 0 
L 16.546875 0 
L 16.546875 1.8125 
L 18.890625 1.8125 
Q 23.09375 1.8125 24.859375 4.34375 
Q 25.921875 5.90625 25.921875 11.46875 
L 25.921875 62.0625 
L 17.96875 62.0625 
Q 13.328125 62.0625 11.375 61.375 
Q 8.84375 60.453125 7.03125 57.8125 
Q 5.21875 55.171875 4.890625 50.6875 
L 3.03125 50.6875 
L 3.8125 66.21875 
z
" id="TimesNewRomanPSMT-84"/>
     </defs>
     <g transform="translate(625.75975 71.82592)scale(0.19 -0.19)">
      <use xlink:href="#TimesNewRomanPSMT-70"/>
      <use x="55.615234" xlink:href="#TimesNewRomanPSMT-82"/>
      <use x="122.314453" xlink:href="#TimesNewRomanPSMT-45"/>
      <use x="155.615234" xlink:href="#TimesNewRomanPSMT-79"/>
      <use x="227.832031" xlink:href="#TimesNewRomanPSMT-42"/>
      <use x="277.832031" xlink:href="#TimesNewRomanPSMT-32"/>
      <use x="302.832031" xlink:href="#TimesNewRomanPSMT-43"/>
      <use x="359.228516" xlink:href="#TimesNewRomanPSMT-32"/>
      <use x="384.228516" xlink:href="#TimesNewRomanPSMT-82"/>
      <use x="450.833984" xlink:href="#TimesNewRomanPSMT-84"/>
     </g>
    </g>
    <g id="PathCollection_24">
     <g>
      <use style="fill:#00ffff;stroke:#00ffff;" x="591.55975" xlink:href="#mffb1b4ce36" y="93.702639"/>
     </g>
    </g>
    <g id="text_33">
     <!-- Cascade Mask RCNN -->
     <defs>
      <path d="M 41.109375 17 
Q 39.3125 8.15625 34.03125 3.390625 
Q 28.765625 -1.375 22.359375 -1.375 
Q 14.75 -1.375 9.078125 5.015625 
Q 3.421875 11.421875 3.421875 22.3125 
Q 3.421875 32.859375 9.6875 39.453125 
Q 15.96875 46.046875 24.75 46.046875 
Q 31.34375 46.046875 35.59375 42.546875 
Q 39.84375 39.0625 39.84375 35.296875 
Q 39.84375 33.453125 38.640625 32.296875 
Q 37.453125 31.15625 35.296875 31.15625 
Q 32.421875 31.15625 30.953125 33.015625 
Q 30.125 34.03125 29.859375 36.90625 
Q 29.59375 39.796875 27.875 41.3125 
Q 26.171875 42.78125 23.140625 42.78125 
Q 18.265625 42.78125 15.28125 39.15625 
Q 11.328125 34.375 11.328125 26.515625 
Q 11.328125 18.5 15.25 12.375 
Q 19.1875 6.25 25.875 6.25 
Q 30.671875 6.25 34.46875 9.515625 
Q 37.15625 11.765625 39.703125 17.671875 
z
" id="TimesNewRomanPSMT-99"/>
      <path d="M 34.71875 5.03125 
Q 31.453125 1.609375 28.328125 0.109375 
Q 25.203125 -1.375 21.578125 -1.375 
Q 14.265625 -1.375 8.796875 4.75 
Q 3.328125 10.890625 3.328125 20.515625 
Q 3.328125 30.125 9.375 38.109375 
Q 15.4375 46.09375 24.953125 46.09375 
Q 30.859375 46.09375 34.71875 42.328125 
L 34.71875 50.59375 
Q 34.71875 58.25 34.34375 60 
Q 33.984375 61.765625 33.203125 62.390625 
Q 32.421875 63.03125 31.25 63.03125 
Q 29.984375 63.03125 27.875 62.25 
L 27.25 63.96875 
L 40.578125 69.4375 
L 42.78125 69.4375 
L 42.78125 17.71875 
Q 42.78125 9.859375 43.140625 8.125 
Q 43.5 6.390625 44.3125 5.703125 
Q 45.125 5.03125 46.1875 5.03125 
Q 47.515625 5.03125 49.703125 5.859375 
L 50.25 4.15625 
L 36.96875 -1.375 
L 34.71875 -1.375 
z
M 34.71875 8.453125 
L 34.71875 31.5 
Q 34.421875 34.8125 32.953125 37.546875 
Q 31.5 40.28125 29.078125 41.671875 
Q 26.65625 43.0625 24.359375 43.0625 
Q 20.0625 43.0625 16.703125 39.203125 
Q 12.25 34.125 12.25 24.359375 
Q 12.25 14.5 16.546875 9.25 
Q 20.84375 4 26.125 4 
Q 30.5625 4 34.71875 8.453125 
z
" id="TimesNewRomanPSMT-100"/>
     </defs>
     <g transform="translate(625.75975 98.690139)scale(0.19 -0.19)">
      <use xlink:href="#TimesNewRomanPSMT-67"/>
      <use x="66.699219" xlink:href="#TimesNewRomanPSMT-97"/>
      <use x="111.083984" xlink:href="#TimesNewRomanPSMT-115"/>
      <use x="150" xlink:href="#TimesNewRomanPSMT-99"/>
      <use x="194.384766" xlink:href="#TimesNewRomanPSMT-97"/>
      <use x="238.769531" xlink:href="#TimesNewRomanPSMT-100"/>
      <use x="288.769531" xlink:href="#TimesNewRomanPSMT-101"/>
      <use x="333.154297" xlink:href="#TimesNewRomanPSMT-32"/>
      <use x="358.154297" xlink:href="#TimesNewRomanPSMT-77"/>
      <use x="447.070312" xlink:href="#TimesNewRomanPSMT-97"/>
      <use x="491.455078" xlink:href="#TimesNewRomanPSMT-115"/>
      <use x="530.371094" xlink:href="#TimesNewRomanPSMT-107"/>
      <use x="580.371094" xlink:href="#TimesNewRomanPSMT-32"/>
      <use x="605.371094" xlink:href="#TimesNewRomanPSMT-82"/>
      <use x="672.070312" xlink:href="#TimesNewRomanPSMT-67"/>
      <use x="738.769531" xlink:href="#TimesNewRomanPSMT-78"/>
      <use x="810.986328" xlink:href="#TimesNewRomanPSMT-78"/>
     </g>
    </g>
    <g id="PathCollection_25">
     <g>
      <use style="fill:#800000;stroke:#800000;" x="850.580219" xlink:href="#m2342108aaa" y="66.83842"/>
     </g>
    </g>
    <g id="text_34">
     <!-- Hybrid Task Cascade -->
     <defs>
      <path d="M 20.5625 35.5 
L 51.3125 35.5 
L 51.3125 54.4375 
Q 51.3125 59.515625 50.6875 61.140625 
Q 50.203125 62.359375 48.640625 63.234375 
Q 46.53125 64.40625 44.1875 64.40625 
L 41.84375 64.40625 
L 41.84375 66.21875 
L 70.171875 66.21875 
L 70.171875 64.40625 
L 67.828125 64.40625 
Q 65.484375 64.40625 63.375 63.28125 
Q 61.8125 62.5 61.25 60.90625 
Q 60.6875 59.328125 60.6875 54.4375 
L 60.6875 11.71875 
Q 60.6875 6.6875 61.328125 5.078125 
Q 61.8125 3.859375 63.328125 2.984375 
Q 65.484375 1.8125 67.828125 1.8125 
L 70.171875 1.8125 
L 70.171875 0 
L 41.84375 0 
L 41.84375 1.8125 
L 44.1875 1.8125 
Q 48.25 1.8125 50.09375 4.203125 
Q 51.3125 5.765625 51.3125 11.71875 
L 51.3125 31.890625 
L 20.5625 31.890625 
L 20.5625 11.71875 
Q 20.5625 6.6875 21.1875 5.078125 
Q 21.6875 3.859375 23.25 2.984375 
Q 25.34375 1.8125 27.6875 1.8125 
L 30.078125 1.8125 
L 30.078125 0 
L 1.703125 0 
L 1.703125 1.8125 
L 4.046875 1.8125 
Q 8.15625 1.8125 10.015625 4.203125 
Q 11.1875 5.765625 11.1875 11.71875 
L 11.1875 54.4375 
Q 11.1875 59.515625 10.546875 61.140625 
Q 10.0625 62.359375 8.546875 63.234375 
Q 6.390625 64.40625 4.046875 64.40625 
L 1.703125 64.40625 
L 1.703125 66.21875 
L 30.078125 66.21875 
L 30.078125 64.40625 
L 27.6875 64.40625 
Q 25.34375 64.40625 23.25 63.28125 
Q 21.734375 62.5 21.140625 60.90625 
Q 20.5625 59.328125 20.5625 54.4375 
z
" id="TimesNewRomanPSMT-72"/>
      <path d="M 0.59375 44.734375 
L 21.4375 44.734375 
L 21.4375 42.921875 
L 20.40625 42.921875 
Q 18.21875 42.921875 17.109375 41.96875 
Q 16.015625 41.015625 16.015625 39.59375 
Q 16.015625 37.703125 17.625 34.328125 
L 28.515625 11.765625 
L 38.53125 36.46875 
Q 39.359375 38.484375 39.359375 40.4375 
Q 39.359375 41.3125 39.015625 41.75 
Q 38.625 42.28125 37.796875 42.59375 
Q 36.96875 42.921875 34.859375 42.921875 
L 34.859375 44.734375 
L 49.421875 44.734375 
L 49.421875 42.921875 
Q 47.609375 42.71875 46.625 42.125 
Q 45.65625 41.546875 44.484375 39.9375 
Q 44.046875 39.265625 42.828125 36.1875 
L 24.609375 -8.453125 
Q 21.96875 -14.9375 17.6875 -18.25 
Q 13.421875 -21.578125 9.46875 -21.578125 
Q 6.59375 -21.578125 4.734375 -19.921875 
Q 2.875 -18.265625 2.875 -16.109375 
Q 2.875 -14.0625 4.21875 -12.8125 
Q 5.5625 -11.578125 7.90625 -11.578125 
Q 9.515625 -11.578125 12.3125 -12.640625 
Q 14.265625 -13.375 14.75 -13.375 
Q 16.21875 -13.375 17.9375 -11.859375 
Q 19.671875 -10.359375 21.4375 -6 
L 24.609375 1.765625 
L 8.546875 35.5 
Q 7.8125 37.015625 6.203125 39.265625 
Q 4.984375 40.96875 4.203125 41.546875 
Q 3.078125 42.328125 0.59375 42.921875 
z
" id="TimesNewRomanPSMT-121"/>
      <path d="M 15.375 37.015625 
Q 21.875 46.046875 29.390625 46.046875 
Q 36.28125 46.046875 41.40625 40.15625 
Q 46.53125 34.28125 46.53125 24.078125 
Q 46.53125 12.15625 38.625 4.890625 
Q 31.84375 -1.375 23.484375 -1.375 
Q 19.578125 -1.375 15.546875 0.046875 
Q 11.53125 1.46875 7.328125 4.296875 
L 7.328125 50.640625 
Q 7.328125 58.25 6.953125 60 
Q 6.59375 61.765625 5.8125 62.390625 
Q 5.03125 63.03125 3.859375 63.03125 
Q 2.484375 63.03125 0.4375 62.25 
L -0.25 63.96875 
L 13.1875 69.4375 
L 15.375 69.4375 
z
M 15.375 33.890625 
L 15.375 7.125 
Q 17.875 4.6875 20.53125 3.4375 
Q 23.1875 2.203125 25.984375 2.203125 
Q 30.421875 2.203125 34.25 7.078125 
Q 38.09375 11.96875 38.09375 21.296875 
Q 38.09375 29.890625 34.25 34.5 
Q 30.421875 39.109375 25.53125 39.109375 
Q 22.953125 39.109375 20.359375 37.796875 
Q 18.40625 36.8125 15.375 33.890625 
z
" id="TimesNewRomanPSMT-98"/>
      <path d="M 16.21875 46.046875 
L 16.21875 35.984375 
Q 21.828125 46.046875 27.734375 46.046875 
Q 30.421875 46.046875 32.171875 44.40625 
Q 33.9375 42.78125 33.9375 40.625 
Q 33.9375 38.71875 32.65625 37.390625 
Q 31.390625 36.078125 29.640625 36.078125 
Q 27.9375 36.078125 25.8125 37.765625 
Q 23.6875 39.453125 22.65625 39.453125 
Q 21.78125 39.453125 20.75 38.484375 
Q 18.5625 36.46875 16.21875 31.890625 
L 16.21875 10.453125 
Q 16.21875 6.734375 17.140625 4.828125 
Q 17.78125 3.515625 19.390625 2.640625 
Q 21 1.765625 24.03125 1.765625 
L 24.03125 0 
L 1.125 0 
L 1.125 1.765625 
Q 4.546875 1.765625 6.203125 2.828125 
Q 7.421875 3.609375 7.90625 5.328125 
Q 8.15625 6.15625 8.15625 10.0625 
L 8.15625 27.390625 
Q 8.15625 35.203125 7.828125 36.6875 
Q 7.515625 38.1875 6.65625 38.859375 
Q 5.8125 39.546875 4.546875 39.546875 
Q 3.03125 39.546875 1.125 38.8125 
L 0.640625 40.578125 
L 14.15625 46.046875 
z
" id="TimesNewRomanPSMT-114"/>
     </defs>
     <g transform="translate(884.780219 71.82592)scale(0.19 -0.19)">
      <use xlink:href="#TimesNewRomanPSMT-72"/>
      <use x="72.216797" xlink:href="#TimesNewRomanPSMT-121"/>
      <use x="122.216797" xlink:href="#TimesNewRomanPSMT-98"/>
      <use x="172.216797" xlink:href="#TimesNewRomanPSMT-114"/>
      <use x="205.517578" xlink:href="#TimesNewRomanPSMT-105"/>
      <use x="233.300781" xlink:href="#TimesNewRomanPSMT-100"/>
      <use x="283.300781" xlink:href="#TimesNewRomanPSMT-32"/>
      <use x="308.285156" xlink:href="#TimesNewRomanPSMT-84"/>
      <use x="369.259766" xlink:href="#TimesNewRomanPSMT-97"/>
      <use x="413.644531" xlink:href="#TimesNewRomanPSMT-115"/>
      <use x="452.560547" xlink:href="#TimesNewRomanPSMT-107"/>
      <use x="502.560547" xlink:href="#TimesNewRomanPSMT-32"/>
      <use x="527.560547" xlink:href="#TimesNewRomanPSMT-67"/>
      <use x="594.259766" xlink:href="#TimesNewRomanPSMT-97"/>
      <use x="638.644531" xlink:href="#TimesNewRomanPSMT-115"/>
      <use x="677.560547" xlink:href="#TimesNewRomanPSMT-99"/>
      <use x="721.945312" xlink:href="#TimesNewRomanPSMT-97"/>
      <use x="766.330078" xlink:href="#TimesNewRomanPSMT-100"/>
      <use x="816.330078" xlink:href="#TimesNewRomanPSMT-101"/>
     </g>
    </g>
    <g id="PathCollection_26">
     <g>
      <use style="fill:#000080;stroke:#000080;" x="850.580219" xlink:href="#mbd3b6cf5e3" y="93.738264"/>
     </g>
    </g>
    <g id="text_35">
     <!-- Faster RCNN H-OBB -->
     <defs>
      <path d="M 46.1875 33.796875 
Q 53.078125 32.328125 56.5 29.109375 
Q 61.234375 24.609375 61.234375 18.109375 
Q 61.234375 13.1875 58.109375 8.671875 
Q 54.984375 4.15625 49.53125 2.078125 
Q 44.09375 0 32.90625 0 
L 1.65625 0 
L 1.65625 1.8125 
L 4.15625 1.8125 
Q 8.296875 1.8125 10.109375 4.4375 
Q 11.234375 6.15625 11.234375 11.71875 
L 11.234375 54.5 
Q 11.234375 60.640625 9.8125 62.25 
Q 7.90625 64.40625 4.15625 64.40625 
L 1.65625 64.40625 
L 1.65625 66.21875 
L 30.28125 66.21875 
Q 38.28125 66.21875 43.109375 65.046875 
Q 50.4375 63.28125 54.296875 58.8125 
Q 58.15625 54.34375 58.15625 48.53125 
Q 58.15625 43.5625 55.125 39.625 
Q 52.09375 35.6875 46.1875 33.796875 
z
M 20.609375 36.421875 
Q 22.40625 36.078125 24.71875 35.90625 
Q 27.046875 35.75 29.828125 35.75 
Q 36.96875 35.75 40.546875 37.28125 
Q 44.140625 38.8125 46.046875 41.984375 
Q 47.953125 45.171875 47.953125 48.921875 
Q 47.953125 54.734375 43.21875 58.828125 
Q 38.484375 62.9375 29.390625 62.9375 
Q 24.515625 62.9375 20.609375 61.859375 
z
M 20.609375 4.78125 
Q 26.265625 3.46875 31.78125 3.46875 
Q 40.625 3.46875 45.265625 7.4375 
Q 49.90625 11.421875 49.90625 17.28125 
Q 49.90625 21.140625 47.796875 24.703125 
Q 45.703125 28.265625 40.96875 30.3125 
Q 36.234375 32.375 29.25 32.375 
Q 26.21875 32.375 24.0625 32.265625 
Q 21.921875 32.171875 20.609375 31.9375 
z
" id="TimesNewRomanPSMT-66"/>
     </defs>
     <g transform="translate(884.780219 98.725764)scale(0.19 -0.19)">
      <use xlink:href="#TimesNewRomanPSMT-70"/>
      <use x="55.615234" xlink:href="#TimesNewRomanPSMT-97"/>
      <use x="100" xlink:href="#TimesNewRomanPSMT-115"/>
      <use x="138.916016" xlink:href="#TimesNewRomanPSMT-116"/>
      <use x="166.699219" xlink:href="#TimesNewRomanPSMT-101"/>
      <use x="211.083984" xlink:href="#TimesNewRomanPSMT-114"/>
      <use x="244.384766" xlink:href="#TimesNewRomanPSMT-32"/>
      <use x="269.384766" xlink:href="#TimesNewRomanPSMT-82"/>
      <use x="336.083984" xlink:href="#TimesNewRomanPSMT-67"/>
      <use x="402.783203" xlink:href="#TimesNewRomanPSMT-78"/>
      <use x="475" xlink:href="#TimesNewRomanPSMT-78"/>
      <use x="547.216797" xlink:href="#TimesNewRomanPSMT-32"/>
      <use x="572.216797" xlink:href="#TimesNewRomanPSMT-72"/>
      <use x="644.433594" xlink:href="#TimesNewRomanPSMT-45"/>
      <use x="677.734375" xlink:href="#TimesNewRomanPSMT-79"/>
      <use x="749.951172" xlink:href="#TimesNewRomanPSMT-66"/>
      <use x="816.650391" xlink:href="#TimesNewRomanPSMT-66"/>
     </g>
    </g>
    <g id="PathCollection_27">
     <g>
      <use style="fill:#c0c0c0;stroke:#c0c0c0;stroke-width:1.5;" x="1109.621469" xlink:href="#meee67f8247" y="66.83842"/>
     </g>
    </g>
    <g id="text_36">
     <!-- RetinaNet -->
     <g transform="translate(1143.821469 71.82592)scale(0.19 -0.19)">
      <use xlink:href="#TimesNewRomanPSMT-82"/>
      <use x="66.699219" xlink:href="#TimesNewRomanPSMT-101"/>
      <use x="111.083984" xlink:href="#TimesNewRomanPSMT-116"/>
      <use x="138.867188" xlink:href="#TimesNewRomanPSMT-105"/>
      <use x="166.650391" xlink:href="#TimesNewRomanPSMT-110"/>
      <use x="216.650391" xlink:href="#TimesNewRomanPSMT-97"/>
      <use x="261.035156" xlink:href="#TimesNewRomanPSMT-78"/>
      <use x="333.251953" xlink:href="#TimesNewRomanPSMT-101"/>
      <use x="377.636719" xlink:href="#TimesNewRomanPSMT-116"/>
     </g>
    </g>
    <g id="PathCollection_28">
     <g>
      <use style="fill:#87ceeb;stroke:#87ceeb;" x="1109.621469" xlink:href="#mee5bf05930" y="93.702639"/>
     </g>
    </g>
    <g id="text_37">
     <!-- Faster RCNN -->
     <g transform="translate(1143.821469 98.690139)scale(0.19 -0.19)">
      <use xlink:href="#TimesNewRomanPSMT-70"/>
      <use x="55.615234" xlink:href="#TimesNewRomanPSMT-97"/>
      <use x="100" xlink:href="#TimesNewRomanPSMT-115"/>
      <use x="138.916016" xlink:href="#TimesNewRomanPSMT-116"/>
      <use x="166.699219" xlink:href="#TimesNewRomanPSMT-101"/>
      <use x="211.083984" xlink:href="#TimesNewRomanPSMT-114"/>
      <use x="244.384766" xlink:href="#TimesNewRomanPSMT-32"/>
      <use x="269.384766" xlink:href="#TimesNewRomanPSMT-82"/>
      <use x="336.083984" xlink:href="#TimesNewRomanPSMT-67"/>
      <use x="402.783203" xlink:href="#TimesNewRomanPSMT-78"/>
      <use x="475" xlink:href="#TimesNewRomanPSMT-78"/>
     </g>
    </g>
   </g>
   <g id="legend_2">
    <g id="patch_13">
     <path d="M 166.093344 110.389982 
L 1251.596 110.389982 
Q 1255.396 110.389982 1255.396 106.589983 
L 1255.396 54.72592 
Q 1255.396 50.92592 1251.596 50.92592 
L 166.093344 50.92592 
Q 162.293344 50.92592 162.293344 54.72592 
L 162.293344 106.589983 
Q 162.293344 110.389982 166.093344 110.389982 
z
" style="fill:#ffffff;opacity:0.8;stroke:#cccccc;stroke-linejoin:miter;"/>
    </g>
    <g id="PathCollection_29">
     <g>
      <use style="fill:#008000;stroke:#008000;" x="188.893344" xlink:href="#m61d38616b2" y="66.83842"/>
     </g>
    </g>
    <g id="text_38">
     <!-- Mask RCNN -->
     <g transform="translate(223.093344 71.82592)scale(0.19 -0.19)">
      <use xlink:href="#TimesNewRomanPSMT-77"/>
      <use x="88.916016" xlink:href="#TimesNewRomanPSMT-97"/>
      <use x="133.300781" xlink:href="#TimesNewRomanPSMT-115"/>
      <use x="172.216797" xlink:href="#TimesNewRomanPSMT-107"/>
      <use x="222.216797" xlink:href="#TimesNewRomanPSMT-32"/>
      <use x="247.216797" xlink:href="#TimesNewRomanPSMT-82"/>
      <use x="313.916016" xlink:href="#TimesNewRomanPSMT-67"/>
      <use x="380.615234" xlink:href="#TimesNewRomanPSMT-78"/>
      <use x="452.832031" xlink:href="#TimesNewRomanPSMT-78"/>
     </g>
    </g>
    <g id="PathCollection_30">
     <g>
      <use style="fill:#ff0000;stroke:#ff0000;" x="188.893344" xlink:href="#m00c5c37b4d" y="93.702639"/>
     </g>
    </g>
    <g id="text_39">
     <!-- FR-O* -->
     <g transform="translate(223.093344 98.690139)scale(0.19 -0.19)">
      <use xlink:href="#TimesNewRomanPSMT-70"/>
      <use x="55.615234" xlink:href="#TimesNewRomanPSMT-82"/>
      <use x="122.314453" xlink:href="#TimesNewRomanPSMT-45"/>
      <use x="155.615234" xlink:href="#TimesNewRomanPSMT-79"/>
      <use x="227.832031" xlink:href="#TimesNewRomanPSMT-42"/>
     </g>
    </g>
    <g id="PathCollection_31">
     <g>
      <use style="fill:#00bfbf;stroke:#00bfbf;" x="379.858187" xlink:href="#mbe194b9dd3" y="66.83842"/>
     </g>
    </g>
    <g id="text_40">
     <!-- RetinaNet-O -->
     <g transform="translate(414.058187 71.82592)scale(0.19 -0.19)">
      <use xlink:href="#TimesNewRomanPSMT-82"/>
      <use x="66.699219" xlink:href="#TimesNewRomanPSMT-101"/>
      <use x="111.083984" xlink:href="#TimesNewRomanPSMT-116"/>
      <use x="138.867188" xlink:href="#TimesNewRomanPSMT-105"/>
      <use x="166.650391" xlink:href="#TimesNewRomanPSMT-110"/>
      <use x="216.650391" xlink:href="#TimesNewRomanPSMT-97"/>
      <use x="261.035156" xlink:href="#TimesNewRomanPSMT-78"/>
      <use x="333.251953" xlink:href="#TimesNewRomanPSMT-101"/>
      <use x="377.636719" xlink:href="#TimesNewRomanPSMT-116"/>
      <use x="405.419922" xlink:href="#TimesNewRomanPSMT-45"/>
      <use x="438.720703" xlink:href="#TimesNewRomanPSMT-79"/>
     </g>
    </g>
    <g id="PathCollection_32">
     <g>
      <use style="fill:#0000ff;stroke:#0000ff;" x="379.858187" xlink:href="#md3d5f86757" y="93.702639"/>
     </g>
    </g>
    <g id="text_41">
     <!-- FR-O* + Dpool -->
     <g transform="translate(414.058187 98.690139)scale(0.19 -0.19)">
      <use xlink:href="#TimesNewRomanPSMT-70"/>
      <use x="55.615234" xlink:href="#TimesNewRomanPSMT-82"/>
      <use x="122.314453" xlink:href="#TimesNewRomanPSMT-45"/>
      <use x="155.615234" xlink:href="#TimesNewRomanPSMT-79"/>
      <use x="227.832031" xlink:href="#TimesNewRomanPSMT-42"/>
      <use x="277.832031" xlink:href="#TimesNewRomanPSMT-32"/>
      <use x="302.832031" xlink:href="#TimesNewRomanPSMT-43"/>
      <use x="359.228516" xlink:href="#TimesNewRomanPSMT-32"/>
      <use x="384.228516" xlink:href="#TimesNewRomanPSMT-68"/>
      <use x="456.445312" xlink:href="#TimesNewRomanPSMT-112"/>
      <use x="506.445312" xlink:href="#TimesNewRomanPSMT-111"/>
      <use x="556.445312" xlink:href="#TimesNewRomanPSMT-111"/>
      <use x="606.445312" xlink:href="#TimesNewRomanPSMT-108"/>
     </g>
    </g>
    <g id="PathCollection_33">
     <g>
      <use style="fill:#bf00bf;stroke:#bf00bf;" x="591.55975" xlink:href="#mb19dab37b3" y="66.83842"/>
     </g>
    </g>
    <g id="text_42">
     <!-- FR-O* + RT -->
     <g transform="translate(625.75975 71.82592)scale(0.19 -0.19)">
      <use xlink:href="#TimesNewRomanPSMT-70"/>
      <use x="55.615234" xlink:href="#TimesNewRomanPSMT-82"/>
      <use x="122.314453" xlink:href="#TimesNewRomanPSMT-45"/>
      <use x="155.615234" xlink:href="#TimesNewRomanPSMT-79"/>
      <use x="227.832031" xlink:href="#TimesNewRomanPSMT-42"/>
      <use x="277.832031" xlink:href="#TimesNewRomanPSMT-32"/>
      <use x="302.832031" xlink:href="#TimesNewRomanPSMT-43"/>
      <use x="359.228516" xlink:href="#TimesNewRomanPSMT-32"/>
      <use x="384.228516" xlink:href="#TimesNewRomanPSMT-82"/>
      <use x="450.833984" xlink:href="#TimesNewRomanPSMT-84"/>
     </g>
    </g>
    <g id="PathCollection_34">
     <g>
      <use style="fill:#00ffff;stroke:#00ffff;" x="591.55975" xlink:href="#mffb1b4ce36" y="93.702639"/>
     </g>
    </g>
    <g id="text_43">
     <!-- Cascade Mask RCNN -->
     <g transform="translate(625.75975 98.690139)scale(0.19 -0.19)">
      <use xlink:href="#TimesNewRomanPSMT-67"/>
      <use x="66.699219" xlink:href="#TimesNewRomanPSMT-97"/>
      <use x="111.083984" xlink:href="#TimesNewRomanPSMT-115"/>
      <use x="150" xlink:href="#TimesNewRomanPSMT-99"/>
      <use x="194.384766" xlink:href="#TimesNewRomanPSMT-97"/>
      <use x="238.769531" xlink:href="#TimesNewRomanPSMT-100"/>
      <use x="288.769531" xlink:href="#TimesNewRomanPSMT-101"/>
      <use x="333.154297" xlink:href="#TimesNewRomanPSMT-32"/>
      <use x="358.154297" xlink:href="#TimesNewRomanPSMT-77"/>
      <use x="447.070312" xlink:href="#TimesNewRomanPSMT-97"/>
      <use x="491.455078" xlink:href="#TimesNewRomanPSMT-115"/>
      <use x="530.371094" xlink:href="#TimesNewRomanPSMT-107"/>
      <use x="580.371094" xlink:href="#TimesNewRomanPSMT-32"/>
      <use x="605.371094" xlink:href="#TimesNewRomanPSMT-82"/>
      <use x="672.070312" xlink:href="#TimesNewRomanPSMT-67"/>
      <use x="738.769531" xlink:href="#TimesNewRomanPSMT-78"/>
      <use x="810.986328" xlink:href="#TimesNewRomanPSMT-78"/>
     </g>
    </g>
    <g id="PathCollection_35">
     <g>
      <use style="fill:#800000;stroke:#800000;" x="850.580219" xlink:href="#m2342108aaa" y="66.83842"/>
     </g>
    </g>
    <g id="text_44">
     <!-- Hybrid Task Cascade -->
     <g transform="translate(884.780219 71.82592)scale(0.19 -0.19)">
      <use xlink:href="#TimesNewRomanPSMT-72"/>
      <use x="72.216797" xlink:href="#TimesNewRomanPSMT-121"/>
      <use x="122.216797" xlink:href="#TimesNewRomanPSMT-98"/>
      <use x="172.216797" xlink:href="#TimesNewRomanPSMT-114"/>
      <use x="205.517578" xlink:href="#TimesNewRomanPSMT-105"/>
      <use x="233.300781" xlink:href="#TimesNewRomanPSMT-100"/>
      <use x="283.300781" xlink:href="#TimesNewRomanPSMT-32"/>
      <use x="308.285156" xlink:href="#TimesNewRomanPSMT-84"/>
      <use x="369.259766" xlink:href="#TimesNewRomanPSMT-97"/>
      <use x="413.644531" xlink:href="#TimesNewRomanPSMT-115"/>
      <use x="452.560547" xlink:href="#TimesNewRomanPSMT-107"/>
      <use x="502.560547" xlink:href="#TimesNewRomanPSMT-32"/>
      <use x="527.560547" xlink:href="#TimesNewRomanPSMT-67"/>
      <use x="594.259766" xlink:href="#TimesNewRomanPSMT-97"/>
      <use x="638.644531" xlink:href="#TimesNewRomanPSMT-115"/>
      <use x="677.560547" xlink:href="#TimesNewRomanPSMT-99"/>
      <use x="721.945312" xlink:href="#TimesNewRomanPSMT-97"/>
      <use x="766.330078" xlink:href="#TimesNewRomanPSMT-100"/>
      <use x="816.330078" xlink:href="#TimesNewRomanPSMT-101"/>
     </g>
    </g>
    <g id="PathCollection_36">
     <g>
      <use style="fill:#000080;stroke:#000080;" x="850.580219" xlink:href="#mbd3b6cf5e3" y="93.738264"/>
     </g>
    </g>
    <g id="text_45">
     <!-- Faster RCNN H-OBB -->
     <g transform="translate(884.780219 98.725764)scale(0.19 -0.19)">
      <use xlink:href="#TimesNewRomanPSMT-70"/>
      <use x="55.615234" xlink:href="#TimesNewRomanPSMT-97"/>
      <use x="100" xlink:href="#TimesNewRomanPSMT-115"/>
      <use x="138.916016" xlink:href="#TimesNewRomanPSMT-116"/>
      <use x="166.699219" xlink:href="#TimesNewRomanPSMT-101"/>
      <use x="211.083984" xlink:href="#TimesNewRomanPSMT-114"/>
      <use x="244.384766" xlink:href="#TimesNewRomanPSMT-32"/>
      <use x="269.384766" xlink:href="#TimesNewRomanPSMT-82"/>
      <use x="336.083984" xlink:href="#TimesNewRomanPSMT-67"/>
      <use x="402.783203" xlink:href="#TimesNewRomanPSMT-78"/>
      <use x="475" xlink:href="#TimesNewRomanPSMT-78"/>
      <use x="547.216797" xlink:href="#TimesNewRomanPSMT-32"/>
      <use x="572.216797" xlink:href="#TimesNewRomanPSMT-72"/>
      <use x="644.433594" xlink:href="#TimesNewRomanPSMT-45"/>
      <use x="677.734375" xlink:href="#TimesNewRomanPSMT-79"/>
      <use x="749.951172" xlink:href="#TimesNewRomanPSMT-66"/>
      <use x="816.650391" xlink:href="#TimesNewRomanPSMT-66"/>
     </g>
    </g>
    <g id="PathCollection_37">
     <g>
      <use style="fill:#c0c0c0;stroke:#c0c0c0;stroke-width:1.5;" x="1109.621469" xlink:href="#meee67f8247" y="66.83842"/>
     </g>
    </g>
    <g id="text_46">
     <!-- RetinaNet -->
     <g transform="translate(1143.821469 71.82592)scale(0.19 -0.19)">
      <use xlink:href="#TimesNewRomanPSMT-82"/>
      <use x="66.699219" xlink:href="#TimesNewRomanPSMT-101"/>
      <use x="111.083984" xlink:href="#TimesNewRomanPSMT-116"/>
      <use x="138.867188" xlink:href="#TimesNewRomanPSMT-105"/>
      <use x="166.650391" xlink:href="#TimesNewRomanPSMT-110"/>
      <use x="216.650391" xlink:href="#TimesNewRomanPSMT-97"/>
      <use x="261.035156" xlink:href="#TimesNewRomanPSMT-78"/>
      <use x="333.251953" xlink:href="#TimesNewRomanPSMT-101"/>
      <use x="377.636719" xlink:href="#TimesNewRomanPSMT-116"/>
     </g>
    </g>
    <g id="PathCollection_38">
     <g>
      <use style="fill:#87ceeb;stroke:#87ceeb;" x="1109.621469" xlink:href="#mee5bf05930" y="93.702639"/>
     </g>
    </g>
    <g id="text_47">
     <!-- Faster RCNN -->
     <g transform="translate(1143.821469 98.690139)scale(0.19 -0.19)">
      <use xlink:href="#TimesNewRomanPSMT-70"/>
      <use x="55.615234" xlink:href="#TimesNewRomanPSMT-97"/>
      <use x="100" xlink:href="#TimesNewRomanPSMT-115"/>
      <use x="138.916016" xlink:href="#TimesNewRomanPSMT-116"/>
      <use x="166.699219" xlink:href="#TimesNewRomanPSMT-101"/>
      <use x="211.083984" xlink:href="#TimesNewRomanPSMT-114"/>
      <use x="244.384766" xlink:href="#TimesNewRomanPSMT-32"/>
      <use x="269.384766" xlink:href="#TimesNewRomanPSMT-82"/>
      <use x="336.083984" xlink:href="#TimesNewRomanPSMT-67"/>
      <use x="402.783203" xlink:href="#TimesNewRomanPSMT-78"/>
      <use x="475" xlink:href="#TimesNewRomanPSMT-78"/>
     </g>
    </g>
   </g>
  </g>
 </g>
 <defs>
  <clipPath id="p41d78637cd">
   <rect height="461.0304" width="505.832727" x="152.064" y="133.632"/>
  </clipPath>
  <clipPath id="p66bfc30c66">
   <rect height="461.0304" width="505.832727" x="759.063273" y="133.632"/>
  </clipPath>
 </defs>
</svg>
